<?xml version="1.0" encoding="UTF-8"?>
<svg width="700pt" height="700pt" version="1.1" viewBox="0 0 700 700" xmlns="http://www.w3.org/2000/svg" xmlns:xlink="http://www.w3.org/1999/xlink">
 <defs>
  <symbol id="y" overflow="visible">
   <path d="m18.766-1.125c-0.96875 0.5-1.9805 0.875-3.0312 1.125-1.043 0.25781-2.1367 0.39062-3.2812 0.39062-3.3984 0-6.0898-0.94531-8.0781-2.8438-1.9922-1.9062-2.9844-4.4844-2.9844-7.7344 0-3.2578 0.99219-5.8359 2.9844-7.7344 1.9883-1.9062 4.6797-2.8594 8.0781-2.8594 1.1445 0 2.2383 0.13281 3.2812 0.39062 1.0508 0.25 2.0625 0.625 3.0312 1.125v4.2188c-0.98047-0.65625-1.9453-1.1406-2.8906-1.4531-0.94922-0.3125-1.9492-0.46875-3-0.46875-1.875 0-3.3516 0.60547-4.4219 1.8125-1.0742 1.1992-1.6094 2.8555-1.6094 4.9688 0 2.1055 0.53516 3.7617 1.6094 4.9688 1.0703 1.1992 2.5469 1.7969 4.4219 1.7969 1.0508 0 2.0508-0.14844 3-0.45312 0.94531-0.3125 1.9102-0.80078 2.8906-1.4688z"/>
  </symbol>
  <symbol id="b" overflow="visible">
   <path d="m13.734-11.141c-0.4375-0.19531-0.87109-0.34375-1.2969-0.4375-0.41797-0.10156-0.83984-0.15625-1.2656-0.15625-1.2617 0-2.2305 0.40625-2.9062 1.2188-0.67969 0.80469-1.0156 1.9531-1.0156 3.4531v7.0625h-4.8906v-15.312h4.8906v2.5156c0.625-1 1.3438-1.7266 2.1562-2.1875 0.82031-0.46875 1.8008-0.70312 2.9375-0.70312 0.16406 0 0.34375 0.011719 0.53125 0.03125 0.19531 0.011719 0.47656 0.039062 0.84375 0.078125z"/>
  </symbol>
  <symbol id="a" overflow="visible">
   <path d="m17.641-7.7031v1.4062h-11.453c0.125 1.1484 0.53906 2.0078 1.25 2.5781 0.70703 0.57422 1.7031 0.85938 2.9844 0.85938 1.0312 0 2.082-0.14844 3.1562-0.45312 1.082-0.3125 2.1914-0.77344 3.3281-1.3906v3.7656c-1.1562 0.4375-2.3125 0.76562-3.4688 0.98438-1.1562 0.22656-2.3125 0.34375-3.4688 0.34375-2.7734 0-4.9297-0.70312-6.4688-2.1094-1.5312-1.4062-2.2969-3.3789-2.2969-5.9219 0-2.5 0.75391-4.4609 2.2656-5.8906 1.5078-1.4375 3.582-2.1562 6.2188-2.1562 2.4062 0 4.332 0.73047 5.7812 2.1875 1.4453 1.4492 2.1719 3.3828 2.1719 5.7969zm-5.0312-1.625c0-0.92578-0.27344-1.6719-0.8125-2.2344-0.54297-0.57031-1.25-0.85938-2.125-0.85938-0.94922 0-1.7188 0.26562-2.3125 0.79688s-0.96484 1.2969-1.1094 2.2969z"/>
  </symbol>
  <symbol id="e" overflow="visible">
   <path d="m9.2188-6.8906c-1.0234 0-1.793 0.17188-2.3125 0.51562-0.51172 0.34375-0.76562 0.85547-0.76562 1.5312 0 0.625 0.20703 1.1172 0.625 1.4688 0.41406 0.34375 0.98828 0.51562 1.7188 0.51562 0.92578 0 1.7031-0.32812 2.3281-0.98438 0.63281-0.66406 0.95312-1.4922 0.95312-2.4844v-0.5625zm7.4688-1.8438v8.7344h-4.9219v-2.2656c-0.65625 0.92969-1.3984 1.6055-2.2188 2.0312-0.82422 0.41406-1.8242 0.625-3 0.625-1.5859 0-2.8711-0.45703-3.8594-1.375-0.99219-0.92578-1.4844-2.1289-1.4844-3.6094 0-1.7891 0.61328-3.1016 1.8438-3.9375 1.2383-0.84375 3.1797-1.2656 5.8281-1.2656h2.8906v-0.39062c0-0.76953-0.30859-1.332-0.92188-1.6875-0.61719-0.36328-1.5703-0.54688-2.8594-0.54688-1.0547 0-2.0312 0.10547-2.9375 0.3125-0.89844 0.21094-1.7305 0.52344-2.5 0.9375v-3.7344c1.0391-0.25 2.0859-0.44141 3.1406-0.57812 1.0625-0.13281 2.125-0.20312 3.1875-0.20312 2.7578 0 4.75 0.54688 5.9688 1.6406 1.2266 1.0859 1.8438 2.8555 1.8438 5.3125z"/>
  </symbol>
  <symbol id="d" overflow="visible">
   <path d="m7.7031-19.656v4.3438h5.0469v3.5h-5.0469v6.5c0 0.71094 0.14062 1.1875 0.42188 1.4375s0.83594 0.375 1.6719 0.375h2.5156v3.5h-4.1875c-1.9375 0-3.3125-0.39844-4.125-1.2031-0.80469-0.8125-1.2031-2.1797-1.2031-4.1094v-6.5h-2.4219v-3.5h2.4219v-4.3438z"/>
  </symbol>
  <symbol id="g" overflow="visible">
   <path d="m12.766-13.078v-8.2031h4.9219v21.281h-4.9219v-2.2188c-0.66797 0.90625-1.4062 1.5703-2.2188 1.9844s-1.7578 0.625-2.8281 0.625c-1.8867 0-3.4336-0.75-4.6406-2.25-1.2109-1.5-1.8125-3.4258-1.8125-5.7812 0-2.3633 0.60156-4.2969 1.8125-5.7969 1.207-1.5 2.7539-2.25 4.6406-2.25 1.0625 0 2 0.21484 2.8125 0.64062 0.82031 0.42969 1.5664 1.0859 2.2344 1.9688zm-3.2188 9.9219c1.0391 0 1.8359-0.37891 2.3906-1.1406 0.55078-0.76953 0.82812-1.8828 0.82812-3.3438 0-1.457-0.27734-2.5664-0.82812-3.3281-0.55469-0.76953-1.3516-1.1562-2.3906-1.1562-1.043 0-1.8398 0.38672-2.3906 1.1562-0.55469 0.76172-0.82812 1.8711-0.82812 3.3281 0 1.4609 0.27344 2.5742 0.82812 3.3438 0.55078 0.76172 1.3477 1.1406 2.3906 1.1406z"/>
  </symbol>
  <symbol id="l" overflow="visible">
   <path d="m10.5-3.1562c1.0508 0 1.8516-0.37891 2.4062-1.1406 0.55078-0.76953 0.82812-1.8828 0.82812-3.3438 0-1.457-0.27734-2.5664-0.82812-3.3281-0.55469-0.76953-1.3555-1.1562-2.4062-1.1562-1.0547 0-1.8594 0.38672-2.4219 1.1562-0.55469 0.77344-0.82812 1.8828-0.82812 3.3281 0 1.4492 0.27344 2.5586 0.82812 3.3281 0.5625 0.77344 1.3672 1.1562 2.4219 1.1562zm-3.25-9.9219c0.67578-0.88281 1.4219-1.5391 2.2344-1.9688 0.82031-0.42578 1.7656-0.64062 2.8281-0.64062 1.8945 0 3.4453 0.75 4.6562 2.25 1.207 1.5 1.8125 3.4336 1.8125 5.7969 0 2.3555-0.60547 4.2812-1.8125 5.7812-1.2109 1.5-2.7617 2.25-4.6562 2.25-1.0625 0-2.0078-0.21094-2.8281-0.625-0.8125-0.42578-1.5586-1.0859-2.2344-1.9844v2.2188h-4.8906v-21.281h4.8906z"/>
  </symbol>
  <symbol id="f" overflow="visible">
   <path d="m0.34375-15.312h4.8906l4.125 10.391 3.5-10.391h4.8906l-6.4375 16.766c-0.64844 1.6953-1.4023 2.8828-2.2656 3.5625-0.86719 0.6875-2 1.0312-3.4062 1.0312h-2.8438v-3.2188h1.5312c0.83203 0 1.4375-0.13672 1.8125-0.40625 0.38281-0.26172 0.67969-0.73047 0.89062-1.4062l0.14062-0.42188z"/>
  </symbol>
  <symbol id="k" overflow="visible">
   <path d="m14.953-3.7188h-8.2188l-1.3125 3.7188h-5.2812l7.5625-20.406h6.2656l7.5625 20.406h-5.2812zm-6.9062-3.7812h5.5781l-2.7812-8.125z"/>
  </symbol>
  <symbol id="j" overflow="visible">
   <path d="m2.3594-21.281h4.8906v21.281h-4.8906z"/>
  </symbol>
  <symbol id="x" overflow="visible">
   <path d="m6.2188-7.8281-5.5156-7.4844h5.1719l3.1406 4.5312 3.1719-4.5312h5.1719l-5.5156 7.4531 5.7969 7.8594h-5.1875l-3.4375-4.8438-3.4062 4.8438h-5.1875z"/>
  </symbol>
  <symbol id="i" overflow="visible">
   <path d="m17.75-9.3281v9.3281h-4.9219v-7.1406c0-1.3203-0.03125-2.2344-0.09375-2.7344s-0.16797-0.86719-0.3125-1.1094c-0.1875-0.3125-0.44922-0.55469-0.78125-0.73438-0.32422-0.17578-0.69531-0.26562-1.1094-0.26562-1.0234 0-1.8242 0.39844-2.4062 1.1875-0.58594 0.78125-0.875 1.8711-0.875 3.2656v7.5312h-4.8906v-15.312h4.8906v2.2344c0.73828-0.88281 1.5195-1.5391 2.3438-1.9688 0.83203-0.42578 1.75-0.64062 2.75-0.64062 1.7695 0 3.1133 0.54688 4.0312 1.6406 0.91406 1.0859 1.375 2.6562 1.375 4.7188z"/>
  </symbol>
  <symbol id="w" overflow="visible">
   <path d="m16.781-19.766v4.3125c-1.125-0.5-2.2266-0.875-3.2969-1.125-1.0625-0.25781-2.0703-0.39062-3.0156-0.39062-1.25 0-2.1797 0.17969-2.7812 0.53125-0.60547 0.34375-0.90625 0.88281-0.90625 1.6094 0 0.54297 0.20312 0.96875 0.60938 1.2812 0.40625 0.30469 1.1406 0.5625 2.2031 0.78125l2.25 0.45312c2.2695 0.44922 3.8789 1.1406 4.8281 2.0781 0.95703 0.92969 1.4375 2.2461 1.4375 3.9531 0 2.25-0.66797 3.9297-2 5.0312-1.3359 1.0938-3.3711 1.6406-6.1094 1.6406-1.3047 0-2.6055-0.125-3.9062-0.375-1.3047-0.23828-2.6055-0.59766-3.9062-1.0781v-4.4531c1.3008 0.69922 2.5625 1.2266 3.7812 1.5781 1.2188 0.34375 2.3906 0.51562 3.5156 0.51562 1.1562 0 2.0352-0.1875 2.6406-0.5625 0.61328-0.38281 0.92188-0.9375 0.92188-1.6562 0-0.63281-0.21094-1.125-0.625-1.4688-0.41797-0.34375-1.2461-0.65625-2.4844-0.9375l-2.0312-0.4375c-2.043-0.4375-3.5391-1.1328-4.4844-2.0938-0.9375-0.95703-1.4062-2.25-1.4062-3.875 0-2.0312 0.65625-3.5938 1.9688-4.6875s3.1953-1.6406 5.6562-1.6406c1.125 0 2.2734 0.085938 3.4531 0.25 1.1875 0.16797 2.4141 0.42188 3.6875 0.76562z"/>
  </symbol>
  <symbol id="h" overflow="visible">
   <path d="m2.3594-21.281h4.8906v11.594l5.625-5.625h5.6875l-7.4688 7.0312 8.0625 8.2812h-5.9375l-5.9688-6.3906v6.3906h-4.8906z"/>
  </symbol>
  <symbol id="c" overflow="visible">
   <path d="m9.6406-12.188c-1.0859 0-1.9141 0.39062-2.4844 1.1719-0.57422 0.78125-0.85938 1.9062-0.85938 3.375s0.28516 2.5938 0.85938 3.375c0.57031 0.77344 1.3984 1.1562 2.4844 1.1562 1.0625 0 1.875-0.38281 2.4375-1.1562 0.57031-0.78125 0.85938-1.9062 0.85938-3.375s-0.28906-2.5938-0.85938-3.375c-0.5625-0.78125-1.375-1.1719-2.4375-1.1719zm0-3.5c2.6328 0 4.6914 0.71484 6.1719 2.1406 1.4766 1.418 2.2188 3.3867 2.2188 5.9062 0 2.5117-0.74219 4.4805-2.2188 5.9062-1.4805 1.418-3.5391 2.125-6.1719 2.125-2.6484 0-4.7148-0.70703-6.2031-2.125-1.4922-1.4258-2.2344-3.3945-2.2344-5.9062 0-2.5195 0.74219-4.4883 2.2344-5.9062 1.4883-1.4258 3.5547-2.1406 6.2031-2.1406z"/>
  </symbol>
  <symbol id="v" overflow="visible">
   <path d="m0.98438-15.312h4.7656l2.5625 10.547 2.5781-10.547h4.0938l2.5781 10.438 2.5781-10.438h4.75l-4.0312 15.312h-5.3438l-2.5781-10.531-2.5781 10.531h-5.3438z"/>
  </symbol>
  <symbol id="u" overflow="visible">
   <path d="m14.312-14.828v3.7188c-1.043-0.4375-2.0547-0.76562-3.0312-0.98438-0.98047-0.21875-1.9023-0.32812-2.7656-0.32812-0.92969 0-1.6211 0.11719-2.0781 0.34375-0.44922 0.23047-0.67188 0.58984-0.67188 1.0781 0 0.38672 0.17188 0.68359 0.51562 0.89062 0.34375 0.21094 0.95703 0.36719 1.8438 0.46875l0.85938 0.125c2.5078 0.32422 4.1953 0.85156 5.0625 1.5781 0.86328 0.73047 1.2969 1.8711 1.2969 3.4219 0 1.6367-0.60547 2.8672-1.8125 3.6875-1.1992 0.8125-2.9922 1.2188-5.375 1.2188-1.0234 0-2.0742-0.078125-3.1562-0.23438-1.0742-0.15625-2.1797-0.39453-3.3125-0.71875v-3.7188c0.96875 0.48047 1.9609 0.83984 2.9844 1.0781 1.0312 0.23047 2.0781 0.34375 3.1406 0.34375 0.95703 0 1.6758-0.12891 2.1562-0.39062 0.47656-0.26953 0.71875-0.66406 0.71875-1.1875 0-0.4375-0.16797-0.75781-0.5-0.96875-0.33594-0.21875-0.99609-0.38281-1.9844-0.5l-0.85938-0.10938c-2.1797-0.26953-3.7031-0.77344-4.5781-1.5156-0.875-0.73828-1.3125-1.8594-1.3125-3.3594 0-1.625 0.55078-2.8281 1.6562-3.6094 1.1133-0.78906 2.8203-1.1875 5.125-1.1875 0.89453 0 1.8359 0.074219 2.8281 0.21875 1 0.13672 2.082 0.35156 3.25 0.64062z"/>
  </symbol>
  <symbol id="t" overflow="visible">
   <path d="m12.422-21.281v3.2188h-2.7031c-0.6875 0-1.1719 0.125-1.4531 0.375-0.27344 0.25-0.40625 0.6875-0.40625 1.3125v1.0625h4.1875v3.5h-4.1875v11.812h-4.8906v-11.812h-2.4375v-3.5h2.4375v-1.0625c0-1.6641 0.46094-2.8984 1.3906-3.7031 0.92578-0.80078 2.3672-1.2031 4.3281-1.2031z"/>
  </symbol>
  <symbol id="s" overflow="visible">
   <path d="m16.547-12.766c0.61328-0.94531 1.3477-1.6719 2.2031-2.1719 0.85156-0.5 1.7891-0.75 2.8125-0.75 1.7578 0 3.0977 0.54688 4.0156 1.6406 0.92578 1.0859 1.3906 2.6562 1.3906 4.7188v9.3281h-4.9219v-7.9844-0.35938c0.007813-0.13281 0.015625-0.32031 0.015625-0.5625 0-1.082-0.16406-1.8633-0.48438-2.3438-0.3125-0.48828-0.82422-0.73438-1.5312-0.73438-0.92969 0-1.6484 0.38672-2.1562 1.1562-0.51172 0.76172-0.77344 1.8672-0.78125 3.3125v7.5156h-4.9219v-7.9844c0-1.6953-0.14844-2.7852-0.4375-3.2656-0.29297-0.48828-0.8125-0.73438-1.5625-0.73438-0.9375 0-1.6641 0.38672-2.1719 1.1562-0.51172 0.76172-0.76562 1.8594-0.76562 3.2969v7.5312h-4.9219v-15.312h4.9219v2.2344c0.60156-0.86328 1.2891-1.5156 2.0625-1.9531 0.78125-0.4375 1.6406-0.65625 2.5781-0.65625 1.0625 0 2 0.25781 2.8125 0.76562 0.8125 0.51172 1.4258 1.2305 1.8438 2.1562z"/>
  </symbol>
  <symbol id="r" overflow="visible">
   <path d="m17.75-9.3281v9.3281h-4.9219v-7.1094c0-1.3438-0.03125-2.2656-0.09375-2.7656s-0.16797-0.86719-0.3125-1.1094c-0.1875-0.3125-0.44922-0.55469-0.78125-0.73438-0.32422-0.17578-0.69531-0.26562-1.1094-0.26562-1.0234 0-1.8242 0.39844-2.4062 1.1875-0.58594 0.78125-0.875 1.8711-0.875 3.2656v7.5312h-4.8906v-21.281h4.8906v8.2031c0.73828-0.88281 1.5195-1.5391 2.3438-1.9688 0.83203-0.42578 1.75-0.64062 2.75-0.64062 1.7695 0 3.1133 0.54688 4.0312 1.6406 0.91406 1.0859 1.375 2.6562 1.375 4.7188z"/>
  </symbol>
  <symbol id="q" overflow="visible">
   <path d="m2.5781-20.406h5.875l7.4219 14v-14h4.9844v20.406h-5.875l-7.4219-14v14h-4.9844z"/>
  </symbol>
  <symbol id="p" overflow="visible">
   <path d="m2.1875-5.9688v-9.3438h4.9219v1.5312c0 0.83594-0.007813 1.875-0.015625 3.125-0.011719 1.25-0.015625 2.0859-0.015625 2.5 0 1.2422 0.03125 2.1328 0.09375 2.6719 0.070313 0.54297 0.17969 0.93359 0.32812 1.1719 0.20703 0.32422 0.47266 0.57422 0.79688 0.75 0.32031 0.16797 0.69141 0.25 1.1094 0.25 1.0195 0 1.8203-0.39062 2.4062-1.1719 0.58203-0.78125 0.875-1.8672 0.875-3.2656v-7.5625h4.8906v15.312h-4.8906v-2.2188c-0.74219 0.89844-1.5234 1.5586-2.3438 1.9844-0.82422 0.41406-1.7344 0.625-2.7344 0.625-1.7617 0-3.1055-0.53906-4.0312-1.625-0.92969-1.082-1.3906-2.6602-1.3906-4.7344z"/>
  </symbol>
  <symbol id="o" overflow="visible">
   <path d="m2.5781-20.406h8.7344c2.5938 0 4.582 0.57812 5.9688 1.7344 1.3945 1.1484 2.0938 2.7891 2.0938 4.9219 0 2.1367-0.69922 3.7812-2.0938 4.9375-1.3867 1.1562-3.375 1.7344-5.9688 1.7344h-3.4844v7.0781h-5.25zm5.25 3.8125v5.7031h2.9219c1.0195 0 1.8047-0.25 2.3594-0.75 0.5625-0.5 0.84375-1.2031 0.84375-2.1094 0-0.91406-0.28125-1.6172-0.84375-2.1094-0.55469-0.48828-1.3398-0.73438-2.3594-0.73438z"/>
  </symbol>
  <symbol id="n" overflow="visible">
   <path d="m2.3594-15.312h4.8906v15.031c0 2.0508-0.49609 3.6172-1.4844 4.7031-0.98047 1.082-2.4062 1.625-4.2812 1.625h-2.4219v-3.2188h0.85938c0.92578 0 1.5625-0.21094 1.9062-0.625 0.35156-0.41797 0.53125-1.2461 0.53125-2.4844zm0-5.9688h4.8906v4h-4.8906z"/>
  </symbol>
  <symbol id="m" overflow="visible">
   <path d="m14.719-14.828v3.9844c-0.65625-0.45703-1.3242-0.79688-2-1.0156-0.66797-0.21875-1.3594-0.32812-2.0781-0.32812-1.3672 0-2.4336 0.40234-3.2031 1.2031-0.76172 0.79297-1.1406 1.9062-1.1406 3.3438 0 1.4297 0.37891 2.543 1.1406 3.3438 0.76953 0.79297 1.8359 1.1875 3.2031 1.1875 0.75781 0 1.4844-0.10938 2.1719-0.32812 0.6875-0.22656 1.3203-0.56641 1.9062-1.0156v4c-0.76172 0.28125-1.5391 0.48828-2.3281 0.625-0.78125 0.14453-1.5742 0.21875-2.375 0.21875-2.7617 0-4.9219-0.70703-6.4844-2.125-1.5547-1.4141-2.3281-3.3828-2.3281-5.9062 0-2.5312 0.77344-4.5039 2.3281-5.9219 1.5625-1.4141 3.7227-2.125 6.4844-2.125 0.80078 0 1.5938 0.074219 2.375 0.21875 0.78125 0.13672 1.5547 0.35156 2.3281 0.64062z"/>
  </symbol>
 </defs>
 <g>
  <path d="m617.68 331.69c-0.48438-0.34766-1.1445-0.73438-1.9062-1.1836-1.1367-0.66797-2.4219-1.4219-3.2969-2.1523-1.1445-0.95312-1.5898-1.8242-1.9102-3.7344-0.34375-2.0352-0.45312-4.6055-0.30469-6.8828 0.46875 0.011719 0.90234 0.019531 1.3047 0.019531 3.3086 0 4.5898-0.41797 5.4961-1.5508 0.92188-1.1523 1.2148-2.7188 1.3984-4.2422 0.24609-2.082 0.3125-4.582 0.33203-5.5586 0.03125-1.8438 0-3.4727-0.70312-4.7695-0.83594-1.543-2.3867-2.1875-3.6406-2.5781-0.47266-0.14453-0.98047-0.27734-1.75-0.47266-0.72266-0.18359-1.7109-0.4375-3.1211-0.82422-0.10938-0.32812-0.22266-0.66797-0.31641-0.98437-0.64453-2.125-0.88672-3.7344-0.83984-5.5547 0.050781-1.9844 0.47266-4.3828 1.1797-6.75 0.69922-2.3281 1.6562-4.5547 2.4453-5.668 0.49609-0.70312 0.88672-0.90625 1.3398-1.1445 0.1875-0.097656 0.36328-0.19141 0.52344-0.29688 0.74609-0.47266 1.1758-1.0859 1.2695-1.8242 0.16016-1.2539-0.75-2.2383-1.0508-2.5586-1.1016-1.1836-3.4141-2.9648-11.605-6.2539-6.8711-2.7578-19.375-7.1406-31.988-10.41-10.562-2.7422-21.992-4.8711-33.055-6.1641-9.0117-1.0508-16.246-1.3789-28.234-1.9219l-3.3516-0.15234c-13.449-0.61328-31.848-1.4414-62.129-1.3164-7.6172-4.2891-19.312-10.398-29.398-15.527-16.012-8.1445-28.746-14.184-42.172-18.934-0.12109-0.30469-0.32031-0.57812-0.60547-0.79297-0.49609-0.37109-1.125-0.60938-4.5977-1.5586-3.5781-0.98047-8.4961-2.2344-14.84-3.2461-7.5-1.1992-16.066-1.8984-25.449-2.0742-10.18-0.19141-22.574 0.20703-33.164 1.0664-10.871 0.88281-19.812 2.2539-26.391 3.3516-7.125 1.1875-12.676 2.2578-16.078 2.9453-3.7031 0.75-4.8008 1.0352-5.5859 1.4531-0.42578 0.22656-0.71094 0.49219-0.91016 0.75391-16.504 3.6133-30.586 7.418-42.199 10.676-12.555 3.5195-23.398 6.75-54.297 16.535-1.4844-0.089844-3.0195-0.085938-4.5664 0.21484-1.9062 0.36328-3.7617 1.1562-5.9062 2.0703l-0.58203 0.24609c-2.5078 1.0664-5.2656 2.1797-8.9453 2.9961-3.625 0.80469-8.418 1.3711-12.211 1.4414-2.7148 0.0625-4.7891-0.16406-6.6211-0.35156-0.60938-0.0625-1.1953-0.125-1.7773-0.17188-2.9648-0.25-5.1562-0.15234-6.6914 0.29688-2.2148 0.64844-3.1523 2.0664-3.7227 3.2266-0.58203 1.1836-1.168 2.9766-0.66797 4.8008 0.48828 1.7734 1.8945 3.1719 2.9492 3.8242 0.34375 0.21484 0.66406 0.35156 0.98047 0.46875-0.66406 2.3984-1.7188 4.1836-2.9141 6.0469-1.6484 2.5781-3.3203 4.9336-4.8242 6.8242-1.0195 1.2734-2.0078 2.3945-3.2578 3.8086-0.69922 0.78906-1.4766 1.6758-2.3477 2.6836-1.1406 0.38672-1.8125 1.0352-2.4414 1.957-0.55469 0.8125-1.5078 2.4062-1.6758 3.9688-0.14062 1.3281 0.27734 2.3828 0.8125 3.7109l0.26172 0.66406c0.37109 0.95313 1.2734 3.3828 1.625 5.3438 0.27734 1.5352 0.1875 2.6406-0.070313 4.1406-0.28906 1.6641-0.69531 3.3086-1.0938 4.3984-0.41016 1.1289-0.83984 1.7422-1.4336 2.3984-0.95312 1.0391-1.7148 2.2695-1.5234 6.2539-0.14453 0.28125-0.25 0.58594-0.28906 0.91797-0.09375 0.82422 0.17969 1.6953 0.73828 2.3203 0.32813 0.36719 0.74219 0.59375 1.1914 0.76953 1.6016 3.3477 2.6172 5.6797 3.3672 7.3984 0.46875 1.0781 0.82812 1.9023 1.1562 2.5742 1.0312 2.1133 1.918 2.9961 3.9688 3.9297 1.4766 0.67578 3.7969 1.5078 7.3008 2.6211 2.6953 0.85547 4.8008 1.4609 6.9688 1.8438 0.99219 0.17578 2.1055 0.33203 3.2148 0.33203 1.1016 0 2.1914-0.17188 3.1602-0.60938 0.47266 0.078125 0.97656 0.15625 1.543 0.23438 1.6797 0.23438 3.8945 0.5 6.6484 0.82812 2.1992 0.26172 4.7461 0.56641 7.6406 0.92969l5.0234 0.64063c6.0625 0.77734 14.359 1.8398 29.332 3.625l9.1094 1.9844c7.1055 12.086 20.238 20.227 35.242 20.227 14.051 0 26.465-7.1289 33.82-17.957h11.777 0.007813c37.957-0.21094 65.355-0.25 88.84-0.14453 11.102 0.050782 20.43 0.12891 28.906 0.20313 6.7734 0.058593 13.008 0.10937 19.168 0.14062 5.3672 0.027344 10.68 0.035157 15.816 0.042969 8.1406 0.015625 15.828 0.027344 22.578 0.10938 7.7734 0.09375 14.285 0.27344 19.512 0.41797 2.168 0.058594 4.1016 0.11328 5.7969 0.15234 2.9688 0.066406 5.2266 0.085937 7.0234 0.085937 1.4453 0 2.5977-0.011718 3.5859-0.023437l0.625-0.007813c2.0312-0.019531 4.1016-0.066406 5.1055-1.3906 2.8086-0.16406 6.1289-0.31641 9.9102-0.45703 7.2734 11.312 19.965 18.828 34.383 18.828 17.25 0 32.031-10.754 38.012-25.906l5.6719-0.69531c0.054688 0.91797 0.097657 1.7734 0.13281 2.5 0 0.007813 0.003906 0.011719 0.003906 0.015626 0 0.003906-0.003906 0.011718-0.003906 0.015624 0.007813 0.10547 0.050781 0.19922 0.078125 0.29688 0.023438 0.082031 0.027344 0.17187 0.066406 0.24609 0.050782 0.10547 0.12891 0.1875 0.19922 0.27734 0.046875 0.058594 0.078125 0.125 0.12891 0.17578 0.089844 0.085938 0.19922 0.14062 0.30859 0.19922 0.054687 0.03125 0.10156 0.078125 0.16016 0.10156 0.17578 0.070312 0.36328 0.10937 0.5625 0.10937h0.070313 0.003906 0.027344c44.785-3.0508 51.973-3.8828 55.5-4.4727 2.4688-0.41406 3.9961-0.73438 4.3164-2.1094 0.28125-1.2617-0.80859-2.043-1.1641-2.3008zm-4.1289-29.754c1.0547 0.32812 1.6367 0.67969 1.8867 1.1367 0.35156 0.65234 0.36328 1.9766 0.33984 3.2812-0.035156 1.9727-0.14844 3.8867-0.3125 5.2578-0.17188 1.4375-0.40234 2.2734-0.75781 2.7148-0.25781 0.32031-1.6211 0.44922-4.1055 0.40234 0.082032-0.57031 0.16797-1.1406 0.25781-1.6992 0.125-0.78906 0.25-1.5664 0.35156-2.3359 0.25391-1.9102 0.48437-4.4492 0.007812-7.1484-0.14062-0.80078-0.33984-1.5938-0.56641-2.375 0.5 0.12891 0.93359 0.24219 1.293 0.33594 0.71094 0.17969 1.1758 0.29688 1.6055 0.42969zm-107.79-50.848 3.3516 0.15234c11.918 0.53906 19.113 0.86328 28.02 1.9023 10.93 1.2773 22.219 3.3828 32.648 6.0898 12.477 3.2383 24.832 7.5664 31.621 10.293 0.28125 0.11328 0.53516 0.22266 0.80859 0.33203-0.83984 0.76953-1.582 1.5469-2.2422 2.332-6.457-2.6445-13.414-5.4023-21.297-7.832-12.449-3.8359-27.105-6.8398-44.812-9.1836-25.484-3.3711-56.188-5.1836-84.312-5.0039-0.20703-0.13281-0.41406-0.26562-0.64453-0.41016 27.184-0.015624 44.215 0.75391 56.859 1.3281zm-136.8-35c0.53516-0.39844 1.1641-0.79297 1.6602-1.1055l0.046875-0.03125c13.465 4.7227 26.219 10.77 42.328 18.965 10.816 5.5039 23.477 12.125 30.879 16.371-1.6953 0.042969-3.2461 0.085938-4.6484 0.12109-3.7383 0.10156-6.4297 0.17969-8.2891 0.15625-3.0273-0.03125-3.4961-0.30078-4.4297-0.84375-1.1523-0.66797-2.8359-1.7461-5.8203-3.7266l-0.83984-0.55469c-2.9023-1.9297-6.8789-4.5703-12.203-7.8125-6.2188-3.7891-13.652-8.0273-19.887-11.344-6.332-3.3672-11.875-6.0156-15.406-7.6445-0.98437-0.45312-1.7617-0.80469-2.375-1.082-0.83594-0.37891-1.4062-0.63672-1.7656-0.82813 0.15234-0.15625 0.38672-0.36719 0.75-0.64062zm-165.78 11.68c11.531-3.2344 25.508-7.0117 41.863-10.598 0.30859 0.28125 0.65625 0.54688 1.043 0.81641 0.25 0.17578 0.51953 0.36328 0.78125 0.56641 0.11328 0.089844 0.22266 0.17578 0.31641 0.26172-1.0781 0.26562-2.7812 0.61328-5.4961 1.168-3.2383 0.66016-8.1289 1.6562-16.125 3.7188-9.3477 2.4141-22.047 6.0508-28.781 8-6.6094 1.9141-12.477 3.6562-17.199 5.0547l-5.6758 1.6797c-5.4883 1.6133-7.6406 2.1836-10.016 2.6523-2.707 0.53516-5.2852 0.83594-7.4531 0.87109h-0.13672c25.352-7.9961 35.406-10.973 46.879-14.191zm-108.25 47.441c1.9844-2.4883 3.8203-5.2227 5.0078-7.0781 1.3047-2.0352 2.5312-4.1172 3.3047-6.9531 0.67578 0.19531 1.4805 0.46094 2.3203 0.74219 0.64062 0.21484 1.3086 0.43359 1.9727 0.64453l0.62891 0.19531c1.4766 0.45703 2.875 0.88672 3.7773 1.6211 1.1445 0.93359 1.6602 2.4609 1.8672 3.2891 0.30469 1.2266 0.23828 2.1094-0.21875 2.9492-0.51172 0.9375-1.5938 1.9844-2.8438 3.1953l-0.85938 0.82812c-1.4062 1.375-2.8633 2.8008-4.4453 3.5469-1.6367 0.77344-3.5977 0.87891-5.9922 0.9375-1.2773 0.03125-2.625 0.050781-3.9141 0.070312-1.1758 0.019532-2.3047 0.035157-3.2969 0.058594-0.28906 0.007813-0.53516 0.015625-0.80078 0.023438 0.042969-0.046875 0.089844-0.10156 0.13281-0.14844 1.2305-1.3906 2.293-2.5898 3.3594-3.9219zm-7.7148 29.824c0.46094-1.2656 0.91016-3.0547 1.2305-4.9141 0.30469-1.7539 0.42188-3.2344 0.070313-5.1914-0.39844-2.2188-1.3789-4.8672-1.7812-5.9023l-0.27344-0.69141c-0.45703-1.1406-0.67188-1.7148-0.61328-2.2734 0.070313-0.64062 0.51562-1.6328 1.168-2.5898 0.44922-0.66016 0.61328-0.75781 1.1016-0.87891 0.82422-0.20703 2.2734-0.28125 4.1953-0.32422 0.98438-0.023437 2.1055-0.039063 3.2695-0.058594 1.2969-0.019531 2.6523-0.039062 3.9414-0.070312 2.7539-0.066407 5.0352-0.19922 7.2031-1.2266 2.0391-0.96094 3.7539-2.6367 5.2656-4.1172l0.84375-0.82031c0.41406-0.40234 0.80469-0.78516 1.1797-1.1602 4.9141 4.2617 8.082 7.1172 10.422 9.2305 1.6953 1.5312 2.9219 2.6367 4.0117 3.5547 2.7578 2.3164 4.8047 3.5781 8.9766 4.4844 3.918 0.85156 10.043 1.3828 34.68 2.1562-4.7188 5.8789-8.0391 13.137-9.5234 21.449-0.98047 5.9609-1.4961 11.902-1.5547 17.734-10.754-0.96484-17.66-1.9453-23.809-2.8672-7.2148-1.0859-14.656-2.2891-19.367-4.0039-4.293-1.5625-6.2617-3.5039-8.2188-5.6953-0.40234-0.44922-0.79297-0.89453-1.168-1.3242-1.3789-1.5742-2.6875-3.0586-4.1016-4.2773-2.1172-1.8281-4.2461-2.8438-7.1133-3.4023-2.8867-0.5625-6.5977-0.64844-9.3086-0.71484l-0.53906-0.011719c-1.2539-0.03125-2.2188-0.050781-3 0 0.039062-1.8672 0.4375-2.3281 0.85547-2.7852 0.88281-0.97656 1.4688-1.9648 1.957-3.3086zm12.559 25.277c-3.3359-1.0586-5.6133-1.875-6.9609-2.4883-1.4102-0.64453-1.7852-1.0195-2.5117-2.5078-0.3125-0.64062-0.65625-1.4297-1.1016-2.457-0.61719-1.4219-1.418-3.2539-2.5742-5.7266l0.66406 0.019532c1.6328 0.039062 3.6602 0.089843 5.1406 0.33203 1.8789 0.30469 2.793 0.92188 3.5039 1.5391 0.90625 0.78906 1.7422 1.8789 3.0625 3.7422l1.082 1.5352c1.1016 1.5703 2.3477 3.3516 3.4258 4.7617 0.96875 1.2734 1.7812 2.2109 2.543 2.9414-1.9023-0.36328-3.7656-0.89453-6.2734-1.6914zm28.637 3.4414c-2.9023-0.36328-5.4531-0.66797-7.6602-0.93359-2.7305-0.32812-4.9258-0.58984-6.5898-0.82031-2.9102-0.40234-3.9648-0.67969-4.9102-1.2812-0.95312-0.60547-1.9258-1.6172-3.3477-3.4844-1.0391-1.3633-2.2695-3.1172-3.3555-4.6641l-1.0898-1.5469c-1.2461-1.7539-2.2969-3.1836-3.5391-4.2695-1.3945-1.2148-2.9336-1.9062-5-2.2422-1.1406-0.1875-2.4922-0.26953-3.7812-0.32031 2.4141 0.066406 5.3086 0.19141 7.5391 0.62891 2.3477 0.45703 4.0039 1.2461 5.7227 2.7266 1.2539 1.082 2.4375 2.4258 3.8047 3.9844 0.38281 0.4375 0.77734 0.88672 1.1875 1.3438 2.1523 2.4062 4.4922 4.7188 9.4375 6.5195 4.9727 1.8125 12.582 3.0469 19.949 4.1562 6.2539 0.94141 13.289 1.9375 24.301 2.918 0.007813 0.45312 0.011719 0.90625 0.027344 1.3594-13.914-1.6641-21.828-2.6758-27.656-3.4219zm78.332 26.449c-20.867 0-37.844-16.977-37.844-37.844 0-20.867 16.977-37.844 37.844-37.844 20.867 0 37.844 16.977 37.844 37.844 0 20.867-16.977 37.844-37.844 37.844zm40.859-37.84c0-22.527-18.328-40.855-40.855-40.855s-40.855 18.328-40.855 40.855c0 6.1211 1.3633 11.93 3.7852 17.148l-5.5508-1.2109c-0.26172-7.2188 0.20312-14.645 1.4297-22.098 1.543-8.6367 5.2109-16.066 10.441-21.848 0.79297-0.023437 1.4414-0.65234 1.4648-1.4531 0-0.027344-0.011719-0.046876-0.011719-0.074219 7.957-7.918 19.078-12.316 31.719-11.824 22.172 0.83984 38.602 16.766 40.871 39.559 0.48438 8.9531 0.74609 16.219 0.78906 21.684h-8.4062c3.293-5.8906 5.1797-12.668 5.1797-19.883zm265.99 37.84c-20.867 0-37.844-16.977-37.844-37.844 0-20.867 16.977-37.844 37.844-37.844s37.844 16.977 37.844 37.844c0 20.867-16.977 37.844-37.844 37.844zm39.121-26.062c1.125-3.7305 1.7383-7.6836 1.7383-11.777 0-22.527-18.328-40.855-40.855-40.855-22.531 0-40.859 18.328-40.859 40.855 0 6.8867 1.7188 13.379 4.7422 19.078-2.8281 0.10938-5.375 0.23047-7.625 0.35547-0.035157-5.3672 0.23828-12.762 0.82031-22.062 1.4883-23.855 18.648-39.883 42.699-39.883 23.664 0 40.801 15.75 42.648 39.195 0.46484 5.9141 0.82422 10.777 1.0703 14.562zm61.305-1.0352c-3.4141 0.57031-10.418 1.3789-53.676 4.3359-0.22266-4.0938-0.66406-10.348-1.3164-18.637-1.9805-25.105-20.328-41.973-45.656-41.973-25.344 0-44.141 17.562-45.707 42.711-0.62891 10.078-0.90234 17.961-0.8125 23.477-0.45312 0.17578-1.7344 0.19141-2.7734 0.20312l-0.53906 0.007812c-2.1953 0.023438-5.1992 0.054688-10.508-0.0625-1.6914-0.039062-3.6211-0.09375-5.7812-0.15234-5.2383-0.14453-11.762-0.32422-19.562-0.41797-6.7656-0.082031-14.461-0.09375-22.609-0.10938-5.1328-0.007813-10.445-0.019531-15.809-0.042969-6.1562-0.03125-12.387-0.082031-19.16-0.14062-8.4805-0.070312-17.809-0.15234-28.918-0.20312-23.176-0.10547-50.18-0.066406-87.359 0.13672-0.042969-5.5156-0.30859-12.84-0.79688-21.906-2.4336-24.422-20.023-41.438-43.762-42.34-13.875-0.50781-26.035 4.4453-34.59 13.316-26.324-0.80859-32.84-1.3477-36.621-2.168-3.5938-0.78125-5.207-1.7734-7.6758-3.8477-1.0703-0.89844-2.2695-1.9805-3.9297-3.4805-2.3555-2.125-5.5469-5.0078-10.512-9.3086 0.09375-0.14453 0.20313-0.28906 0.28516-0.4375 0.83203-1.5195 0.99219-3.1484 0.50391-5.1211-0.51172-2.0586-1.5352-3.7969-2.8867-4.8984-1.3594-1.1055-3.1055-1.6445-4.793-2.168l-0.61328-0.19141c-0.64844-0.20312-1.3008-0.41797-1.9258-0.62891-1.1406-0.37891-2.2188-0.73828-3.0977-0.95703-0.375-0.09375-0.69531-0.15625-0.99609-0.21484-0.003906 0-0.007813-0.003906-0.011719-0.003906h-0.011718c-0.03125-0.007812-0.074219-0.015625-0.10156-0.023437-0.68359-0.13281-1-0.19922-1.3711-0.42969-0.62109-0.38672-1.4062-1.2422-1.6367-2.0664-0.19531-0.71094-0.03125-1.6562 0.46484-2.668 0.47266-0.96094 0.96094-1.3945 1.8633-1.6602 0.79297-0.23047 2.4023-0.45312 5.5898-0.18359 0.5625 0.046875 1.1289 0.10547 1.7188 0.16797 1.918 0.19531 4.0938 0.41797 6.9883 0.36328 3.9766-0.074218 9.0039-0.66797 12.809-1.5156 3.9297-0.87109 6.8359-2.0391 9.4727-3.1641l0.58594-0.25c2.0664-0.88281 3.6992-1.5781 5.2891-1.8828 1.7852-0.33984 3.6914-0.20703 5.4883-0.035156l1.0312 0.10156c1.7578 0.17578 3.75 0.375 5.8984 0.33594 2.3477-0.039062 5.1094-0.35938 7.9883-0.92969 2.7188-0.53516 5.2578-1.2422 10.281-2.7188l5.6797-1.6797c4.7148-1.3984 10.578-3.1367 17.18-5.0508 6.7188-1.9453 19.387-5.5703 28.695-7.9766 7.918-2.0469 12.766-3.0312 15.992-3.6875 3.3555-0.68359 5.2031-1.0586 6.3242-1.3828 0.80859-0.23438 1.7109-0.55469 2.1172-1.4023 0.17188-0.35156 0.3125-0.91797 0.027344-1.625-0.37891-0.9375-1.4531-1.8711-2.0625-2.3438-0.20703-0.16016-0.41797-0.31641-0.62891-0.46484 0.81641-0.20703 2-0.45703 3.5664-0.77344 3.3789-0.68359 8.8945-1.7461 15.977-2.9258 6.5195-1.0859 15.379-2.4414 26.141-3.3203 10.496-0.85156 22.781-1.25 32.863-1.0586 9.2461 0.17578 17.668 0.85938 25.031 2.0352 6.1992 0.99219 11.016 2.2188 14.516 3.1797 0.375 0.10547 0.94922 0.26172 1.5273 0.42188-0.19141 0.13281-0.37891 0.26562-0.55859 0.39844-1.0195 0.75781-1.6406 1.4414-1.9531 2.1406-0.51953 1.1562-0.1875 2.332 0.88672 3.1445 0.5 0.37891 1.0859 0.64062 2.6406 1.3477 0.60938 0.27734 1.3789 0.625 2.3555 1.0742 3.5 1.6133 8.9844 4.2344 15.254 7.5703 6.1875 3.2891 13.562 7.4961 19.73 11.258 5.2773 3.2148 9.2227 5.8359 12.105 7.75l0.83984 0.55859c3.0781 2.0391 4.7539 3.1133 5.9727 3.8203 1.4844 0.85938 2.4336 1.2148 5.9141 1.25 1.9062 0.019531 4.6289-0.054687 8.4023-0.15625 2.7188-0.074219 5.9727-0.16016 9.832-0.23828 28.117-0.20703 58.84 1.6094 84.32 4.9766 17.535 2.3203 32.031 5.2891 44.316 9.0742 7.4766 2.3047 14.137 4.918 20.328 7.4492-0.31641 0.47656-0.625 0.95312-0.91016 1.4297-26.477-3.3516-34.047-3.9453-39.055-4.2383-5.1484-0.30078-7.0117-0.29297-8.3125 0.035156-2.4453 0.61719-2.5234 2.4023-2.4922 2.9375 0.070313 1.125 0.78125 1.9062 1.5039 2.6094 0.82812 0.80859 2.0078 1.8008 3.7148 3.1172 2.6719 2.0664 5.0391 3.6914 7.0352 4.8281 2.7227 1.5547 5.25 2.4766 8.7305 3.1836 3.6094 0.73047 8.4727 1.2695 11.691 1.625 3.2148 0.35156 5.3633 0.58984 7.1328 0.58984h0.11328c1.9219-0.011719 3.418-0.3125 4.5742-0.91016 1.3398-0.69922 2.1055-1.7383 3.1367-3.5312 0.4375-0.76562 0.95312-1.7266 1.5391-2.8125 0.71875-1.3438 1.5469-2.8828 2.4648-4.4883 0.10547-0.18359 0.20703-0.36328 0.31641-0.54688 0.003906-0.011719 0.011718-0.019531 0.019531-0.03125 1.418-2.4375 3.1172-4.9648 5.9961-7.3047 3.4453 1.543 5.6602 2.8359 6.6094 3.8516-0.58984 0.3125-1.4492 0.79297-2.3281 2.0391-0.98828 1.3984-2.0625 3.8438-2.8711 6.543-0.78516 2.6133-1.25 5.2891-1.3047 7.5352-0.054687 2.1367 0.23438 4.082 0.96875 6.5078 0.18359 0.60938 0.39453 1.2422 0.60547 1.8828 0.49609 1.5 1.0117 3.0547 1.2734 4.5352 0.31641 1.7891 0.30859 3.7109-0.027344 6.2266-0.097656 0.74609-0.21875 1.4961-0.33984 2.2617-0.17578 1.1055-0.33984 2.2539-0.46875 3.4336-0.007812 0.046874-0.03125 0.085937-0.03125 0.13281 0 0.023438 0.011719 0.042969 0.011719 0.066406-0.046875 0.44141-0.10547 0.87109-0.13672 1.3281-0.16797 2.5039-0.042969 5.3477 0.33594 7.6055 0.375 2.2148 0.99609 3.918 2.9531 5.5469 1.0469 0.87109 2.4258 1.6875 3.6445 2.4023-0.046875 0.011719-0.10547 0.019531-0.16406 0.027343zm-18.445-54.152c-0.625 1.1289-1.2031 2.1992-1.7227 3.1719-0.56641 1.0586-1.0703 1.9922-1.4961 2.7383-0.94531 1.6484-1.3711 2.0742-1.9141 2.3555-0.70703 0.37109-1.7852 0.5625-3.1953 0.57031-1.5703-0.015625-3.4258-0.19141-6.8984-0.57031-3.1641-0.34766-7.9453-0.875-11.422-1.582-3.1836-0.64453-5.3789-1.4453-7.832-2.8438-1.875-1.0703-4.125-2.6172-6.6875-4.5977-1.5898-1.2305-2.7227-2.1758-3.4531-2.8906-0.20703-0.19922-0.34375-0.34766-0.43359-0.44922 0.015625-0.003906 0.035157-0.007812 0.050781-0.015624 1.0273-0.25781 3.4922-0.17578 7.4023 0.050781 4.875 0.28516 12.227 0.85938 37.602 4.0625z"/>
  <path d="m286.29 251.25c9.6211 0.375 19.574 0.75781 36.855 1.2461 11.332 0.32031 24.527 0.64453 41.676 0.64453 4.7148 0 9.7383-0.027344 15.094-0.082031 0.066406 0.09375 0.125 0.19141 0.20312 0.28516 0.95312 1.1406 2.4141 1.75 5.0391 2.1055 2.0391 0.27734 4.8984 0.42969 8.0039 0.42969 0.14062 0 0.28516-0.003906 0.42578-0.003906 1.2188 2.0352 2.6133 2.2812 4.3828 2.3711 1.3555 0.070312 3.4258 0.12891 6.1523 0.17188 0.85937 0.015625 1.625 0.027343 2.3164 0.027343 0.86328 0 1.6094-0.019531 2.2617-0.070312 1.4375-0.11328 2.3867-0.38672 3.0781-0.89062 0.64844-0.47266 1.3633-1.3906 1.0898-3.0586-0.12891-0.76953-0.48438-1.4219-1.1172-2.0078 2.0117-0.058594 4.0547-0.12109 6.1328-0.1875 0.65234-0.019531 1.2148-0.45703 1.3984-1.082s-0.054688-1.2969-0.59375-1.668c-2.9258-2.0156-14.938-9.7812-25.703-15.656-9.4805-5.1758-18.93-9.3711-28.086-12.465-8.4375-2.8555-15.09-4.2383-24.543-5.1055-10.766-0.98828-24.113-1.1953-35.703-0.55078-11.406 0.62891-23.031 2.1406-36.59 4.7539-14.387 2.7695-27.633 6.1211-32.66 7.4336-8.2031 2.1406-13.141 3.6719-16 4.957-1.5 0.67578-4.6211 2.082-3.4727 5.2422 0.56641 1.5664 2.1406 3.4922 4.2109 5.1523 1.9375 1.5586 4.2539 2.8086 9.2656 3.8672 4.8398 1.0234 12.328 1.8984 21.652 2.5312 8.5664 0.58203 18.816 0.97266 28.73 1.3516zm96.141 0.15625c-0.25-0.30078-0.51953-0.88281-0.36719-2.7734 0.19922-2.4883 0.90234-4.0977 2.1406-4.9141 1.5352-1.0078 4.6836-1.3516 8.2148-0.88281 3.3477 0.44141 5.9609 1.4961 7.5625 2.3086 1.8008 0.91016 3.0156 1.8477 3.7148 2.8594 0.57422 0.83203 0.87891 1.8555 0.83984 2.8047-0.023438 0.51562-0.035156 0.85156-1.3672 1.2383-1.6016 0.46094-4.7695 0.75391-8.6992 0.80859h-0.03125-0.003906c-3.4023 0.050781-6.7148-0.10156-8.8633-0.39062-2.2539-0.30859-2.8633-0.73047-3.1406-1.0586zm26.039 3.9648c-1.0391 0.082031-2.4961 0.0625-4.293 0.035156-0.79688-0.011719-1.5156-0.027344-2.1914-0.042969 0.74219-0.11328 1.4297-0.25 2.0156-0.41797 1.2773-0.36719 2.1797-0.92187 2.7617-1.6836 2.1953 0.71875 3.0781 1.3164 3.1328 1.6602 0.011719 0.078125 0.019531 0.13672 0.019531 0.17969-0.15625 0.070313-0.55469 0.19922-1.4453 0.26953zm-178.43-11.207c-4.4375-0.9375-6.3516-1.9453-8-3.2695-1.8281-1.4688-2.957-2.9805-3.2656-3.8281-0.066406-0.17578-0.066406-0.25391-0.070313-0.25391 0.023438-0.050781 0.25-0.44531 1.9453-1.2109 2.6641-1.1992 7.5938-2.7227 15.523-4.7891 5-1.3047 18.172-4.6367 32.469-7.3906 13.418-2.5859 24.918-4.082 36.184-4.7031 11.453-0.63672 24.637-0.42969 35.262 0.54297 9.1914 0.84375 15.656 2.1875 23.852 4.957 8.9883 3.0391 18.277 7.1641 27.609 12.258 7.8711 4.293 16.402 9.6055 21.496 12.891-1.9023 0.054687-3.75 0.10547-5.5898 0.15625-0.17578-1.1367-0.60156-2.25-1.2734-3.2266-0.99219-1.4375-2.5742-2.6953-4.8359-3.8398-2.5977-1.3125-5.5469-2.2148-8.5312-2.6055-2.0547-0.27344-7.1719-0.67969-10.266 1.3555-2.0664 1.3594-3.2109 3.7109-3.4883 7.1914-0.042969 0.55078-0.066406 1.1094-0.046875 1.6602-24.32 0.24219-41.535-0.16797-55.781-0.57031-17.27-0.48828-27.211-0.87109-36.824-1.2461l-6.4961-0.25c-9.8906-0.375-20.121-0.76563-28.641-1.3477-9.1797-0.62891-16.523-1.4844-21.23-2.4805z"/>
  <path d="m585.51 328.82c1.1641-0.003907 2.1953-0.003907 3.1211-0.015625 3.3711-0.039063 5.4219-0.1875 6.832-0.31641 1.3633-0.12109 2.9062-0.26172 3.8086-2.0625 0.58594-1.1719 0.92969-2.5391 1.0195-15.492 1.2266 0.078125 2.5352 0.17188 3.9727 0.28906 0.85156 0.066407 1.5586-0.54687 1.625-1.3789 0.070313-0.82812-0.54688-1.5586-1.3789-1.625-2.125-0.17578-3.9922-0.30078-5.6914-0.38672-0.007812 0-0.015624-0.003907-0.023437-0.003907h-0.007813c-0.003906 0-0.007812 0.003907-0.011718 0.003907-3.7852-0.19141-6.6094-0.16016-8.7695 0.085937-3.0195 0.34766-4.8867 1.1172-6.6602 2.7461-1.625 1.4922-3.1562 3.6875-5.0938 6.4688-2.3125 3.3164-4.6367 6.6875-5.9844 8.8633-1.4297 2.3086-2.0391 3.6797-1.6523 5.2188 0.625 2.4688 3.25 2.9023 5.1758 3.0156 0.39844 0.023437 0.82812 0.035156 1.3242 0.035156 1.418 0 3.3789-0.089843 6.6602-0.23828 4.1719-0.19141 10.48-0.47656 20.496-0.80078 0.83203-0.027344 1.4844-0.72266 1.457-1.5547-0.027344-0.83203-0.74609-1.4883-1.5547-1.457-10.039 0.32422-16.355 0.61328-20.539 0.80078-4.3203 0.19531-6.2891 0.28516-7.6719 0.20703-0.53125-0.03125-2.2812-0.17578-2.4258-0.74219-0.050781-0.20312-0.007812-0.5625 0.48828-1.5078 4.9883-0.14062 8.5781-0.14844 11.484-0.15234zm-4.7773-9.9648c1.832-2.6289 3.2773-4.7031 4.6602-5.9727 1.1016-1.0117 2.2695-1.6602 4.9648-1.9688 1.7461-0.20312 3.9922-0.24609 6.9219-0.13281-0.074219 10.863-0.31641 13.523-0.70312 14.297-0.125 0.25391-0.14844 0.29688-1.3828 0.41016-1.3555 0.12109-3.3281 0.26562-6.5938 0.30469-0.91797 0.011719-1.9375 0.011719-3.0938 0.015625-2.3945 0.003906-5.5352 0.011719-9.5938 0.10156 1.3125-2.0039 3.0664-4.5391 4.8203-7.0547z"/>
  <path d="m277.37 269.42c0 5.0586 12.207 5.4492 15.945 5.4492 3.7422 0 15.945-0.39453 15.945-5.4492s-12.207-5.4492-15.945-5.4492-15.945 0.39453-15.945 5.4492zm28.887-0.050781c-0.26172 0.66406-3.8203 2.4844-12.938 2.4844-9.1211 0-12.676-1.8203-12.938-2.3867 0.26172-0.66406 3.8203-2.4844 12.938-2.4844 9.1172 0.003906 12.672 1.8242 12.938 2.3867z"/>
  <path d="m233.78 323.7c0.023438-0.44531 0.066406-0.88672 0.066406-1.3398 0-6.4531-2.2734-12.379-6.0508-17.035-0.023437-0.03125-0.027344-0.070313-0.054687-0.10156-0.015626-0.019531-0.042969-0.027344-0.058594-0.046875-0.26562-0.32031-0.55469-0.61719-0.83203-0.92578-0.019531-0.03125-0.023437-0.070312-0.046874-0.10156-0.078126-0.10938-0.18359-0.18359-0.28516-0.26172-2.3828-2.5508-5.2422-4.6328-8.4453-6.1172-0.074219-0.039062-0.13281-0.09375-0.21094-0.11719-0.015625-0.003906-0.03125 0-0.046875-0.003906-0.38281-0.17188-0.77344-0.33594-1.1641-0.48828-0.035156-0.019531-0.0625-0.050781-0.10156-0.0625-0.046875-0.019531-0.09375-0.011718-0.14062-0.023437-3.0078-1.1523-6.2578-1.8125-9.668-1.8125-3.4102 0-6.6602 0.66016-9.6641 1.8125-0.046875 0.011719-0.097656 0.007812-0.14453 0.027343-0.039063 0.015626-0.0625 0.046876-0.10156 0.066407-0.39453 0.15625-0.78125 0.31641-1.1641 0.48828-0.015625 0.003906-0.03125 0-0.046875 0.003906-0.082032 0.027344-0.14062 0.082032-0.21484 0.12109-3.207 1.4844-6.0664 3.5703-8.4492 6.1211-0.097656 0.078125-0.19922 0.14844-0.27734 0.25781-0.023438 0.03125-0.023438 0.066406-0.042969 0.097656-0.27734 0.30859-0.57031 0.60547-0.83594 0.92969-0.015625 0.019531-0.039062 0.027344-0.058593 0.046875-0.023438 0.03125-0.03125 0.066406-0.050782 0.097656-3.7773 4.6602-6.0547 10.586-6.0547 17.039 0 0.45312 0.046875 0.89453 0.066406 1.3438-0.003906 0.058594-0.027344 0.11328-0.027344 0.17578 0.003907 0.058594 0.03125 0.10938 0.042969 0.16797 0.26172 4.2031 1.4648 8.1484 3.4336 11.621 0.027344 0.046874 0.035156 0.10156 0.066406 0.14453 0.011719 0.015625 0.03125 0.019531 0.042969 0.035156 0.19922 0.34766 0.41016 0.69141 0.625 1.0273 0.027343 0.050781 0.03125 0.10938 0.0625 0.16016 0.035156 0.054687 0.082031 0.097656 0.125 0.14453 3.5977 5.4844 9.1289 9.5703 15.621 11.32 0.046876 0.015625 0.082032 0.050781 0.12891 0.0625 0.082031 0.019531 0.16016 0.023437 0.24219 0.03125 2.1406 0.54688 4.3711 0.86719 6.6758 0.86719 2.3086 0 4.5352-0.32031 6.6758-0.86719 0.078125-0.007813 0.16016-0.011719 0.23828-0.03125 0.046875-0.011719 0.082031-0.046875 0.12891-0.0625 6.4883-1.75 12.023-5.8359 15.621-11.324 0.042969-0.046875 0.085938-0.089844 0.12109-0.14453 0.03125-0.050781 0.035156-0.10547 0.0625-0.15625 0.21484-0.33984 0.42578-0.67969 0.625-1.0273 0.011718-0.015625 0.03125-0.019531 0.042968-0.035156 0.03125-0.042969 0.039063-0.097657 0.066407-0.14453 1.9648-3.4727 3.1719-7.4141 3.4336-11.617 0.011719-0.058594 0.039063-0.10938 0.042969-0.17188 0.011719-0.074219-0.015625-0.12891-0.019531-0.19141zm-50.699 3.1172 4.6055 0.011719c0.25 1.0625 0.58594 2.1055 1.0117 3.1133l-3.707 2.7109c-0.87109-1.8359-1.5273-3.7852-1.9102-5.8359zm12.109-25.59 1.4141 4.3906c-0.93359 0.56641-1.8203 1.207-2.6484 1.9219l-3.7188-2.6836c1.4883-1.4062 3.1445-2.6367 4.9531-3.6289zm28.059 3.6289-3.7188 2.6836c-0.82812-0.71484-1.7109-1.3594-2.6484-1.9258l1.4141-4.3906c1.8086 0.99609 3.4648 2.2266 4.9531 3.6328zm7.5781 17.344-4.5234-0.25391c-0.078126-3.8594-1.2891-7.5859-3.4961-10.754l3.4922-2.8477c2.8125 3.9141 4.4922 8.6875 4.5273 13.855zm-37.816-9.1016 1.0898 0.88672h0.003907c2.1602 1.7656 3.6836 2.7539 4.9102 3.5469l0.59375 0.38672c0.91797 0.60547 1.6133 1.0664 2.7812 3.0195-2.0898 0.89062-2.9258 0.85938-4.0273 0.80859l-0.69531-0.035156c-1.457-0.078126-3.2734-0.17188-6.0742-0.015626l-1.4023 0.078126c0.10547-3.1016 1.082-6.1016 2.8203-8.6758zm18.652 1.9023 0.1875-0.69531c0.35938-1.3438 0.80469-3.0117 1.7578-5.4648l0.53125-1.3711c0.078125 0.066406 0.14453 0.14453 0.24219 0.19531 1.4609 0.75781 2.8008 1.7305 3.9766 2.8867 0.078125 0.078125 0.17188 0.11719 0.26172 0.17188l-1.1406 0.92969c-2.0352 1.6602-3.4844 2.6016-4.6484 3.3555l-0.61328 0.39844c-0.30469 0.19922-0.58984 0.40234-0.87109 0.61328 0.11719-0.33203 0.21875-0.66797 0.31641-1.0195zm11.629 6.7773-1.4023-0.078125c-2.793-0.15234-4.6133-0.058594-6.0703 0.015625l-0.69531 0.035156c-1.1016 0.050781-1.9375 0.082031-4.0273-0.80859 1.168-1.9531 1.8633-2.4141 2.7812-3.0195l0.59375-0.38672c1.2266-0.79688 2.75-1.7852 4.9102-3.5508l1.0859-0.88672c1.7461 2.5742 2.7188 5.5742 2.8242 8.6797zm-17.93 0.58203c0-0.76172 0.61719-1.3789 1.3789-1.3789 0.76172 0 1.3789 0.61719 1.3789 1.3789s-0.61719 1.3789-1.3789 1.3789c-0.75781 0-1.3789-0.62109-1.3789-1.3789zm-6.2617-14.695c0.097657-0.050781 0.16406-0.12891 0.24609-0.19531l0.53125 1.3711c0.94922 2.4492 1.3984 4.1172 1.7578 5.457l0.19141 0.70312c0.097656 0.35156 0.19922 0.6875 0.31641 1.0195-0.28125-0.21484-0.56641-0.41406-0.87109-0.61328l-0.61328-0.39844c-1.1641-0.75391-2.6094-1.6953-4.6445-3.3555v-0.003906l-1.1367-0.92969c0.085938-0.054688 0.17969-0.09375 0.25781-0.16797 1.1641-1.1562 2.5-2.125 3.9648-2.8867zm-5.8594 21.594-1.2344 0.79688c-0.027343-0.10156-0.03125-0.20313-0.082031-0.29688-0.73828-1.4766-1.2461-3.0469-1.5195-4.6719-0.019531-0.10938-0.074219-0.19531-0.11328-0.29297l1.4688-0.082031c2.6289-0.14844 4.3555-0.054688 5.7461 0.015624l0.71875 0.035157c0.28125 0.011719 0.55469 0.023437 0.82813 0.023437 0.078124 0 0.16016-0.003906 0.23828-0.003906-0.28906 0.19922-0.56641 0.41016-0.85156 0.64062l-0.55859 0.45312c-1.082 0.87109-2.4258 1.957-4.6406 3.3828zm21.191-4.4727c0.27344 0 0.54297-0.007812 0.82812-0.023437l0.71875-0.035157c1.3867-0.074218 3.1133-0.16406 5.7422-0.015624l1.4688 0.082031c-0.039062 0.097656-0.09375 0.18359-0.10938 0.28906-0.26953 1.625-0.78125 3.1992-1.5195 4.6758-0.046875 0.097657-0.054688 0.19922-0.082031 0.30078l-1.2383-0.79688c-2.2109-1.4258-3.5547-2.5117-4.6328-3.3867l-0.56641-0.45703c-0.28516-0.22656-0.5625-0.4375-0.85156-0.64062 0.082032 0.003906 0.16406 0.007812 0.24219 0.007812zm-3.6367-17.039c-1.0117 2.6094-1.4844 4.3672-1.8594 5.7773l-0.18359 0.67578c-0.29297 1.0586-0.51953 1.8633-2.0117 3.5781-1.4961-1.7148-1.7227-2.5195-2.0117-3.5781l-0.18359-0.68359c-0.37891-1.4102-0.84766-3.168-1.8594-5.7695l-0.50781-1.3086c2.9883-0.85938 6.1406-0.85547 9.1289 0zm-23.613 0.59766 3.4922 2.8477c-2.2031 3.168-3.4141 6.8984-3.4961 10.754l-4.5234 0.25391c0.035156-5.168 1.7148-9.9414 4.5273-13.855zm7.6914 23.449c2.3555-1.5156 3.7695-2.6641 4.9023-3.582l0.54297-0.4375c0.85938-0.6875 1.5156-1.2031 3.7305-1.7109 0.19922 2.2656-0.089843 3.0469-0.47656 4.0781l-0.25 0.66016c-0.52344 1.3633-1.1758 3.0625-1.8906 5.7617l-0.35938 1.3594c-2.9219-1.0625-5.4727-2.9141-7.3828-5.3633zm9.4141 6.9453c-0.10937-0.015625-0.21094 0.007813-0.3125 0.015625l0.375-1.4219c0.67188-2.543 1.293-4.1562 1.7891-5.4492l0.26172-0.67969c0.12891-0.33984 0.24219-0.67188 0.34375-1.0117 0.10156 0.33984 0.21484 0.66797 0.34375 1.0117l0.25781 0.67578c0.5 1.2969 1.1172 2.9062 1.7891 5.4531l0.375 1.4219c-0.10156-0.003906-0.20312-0.03125-0.30859-0.015625-1.6289 0.24219-3.2852 0.24609-4.9141 0zm7.7617-2.1758c-0.71484-2.7031-1.3672-4.4023-1.8906-5.7656l-0.25-0.65625c-0.38672-1.0312-0.67578-1.8125-0.47656-4.0781 2.2188 0.50781 2.875 1.0273 3.7305 1.7109l0.54688 0.44141c1.1367 0.92188 2.5469 2.0664 4.8984 3.5781l1.1797 0.76172c-1.9102 2.4492-4.4648 4.3047-7.3828 5.3633zm16.441-3.9141-3.707-2.7109c0.42188-1.0078 0.76172-2.0469 1.0117-3.1133l4.6055-0.011719c-0.38281 2.0547-1.0391 4.0039-1.9102 5.8359zm-14.453-33.246-1.6406 4.2266c-3.6953-1.1172-7.6133-1.1172-11.309 0l-1.6406-4.2266c2.3047-0.73438 4.7539-1.1367 7.2969-1.1367 2.5391 0 4.9883 0.40234 7.293 1.1367zm-26.664 37.223 3.7852-2.4375c2.332 3.0742 5.5039 5.3789 9.1484 6.6484l-1.1523 4.3711c-4.7656-1.5859-8.8555-4.6211-11.781-8.582zm16.297 9.6055 1.4336-4.3711c0.54688 0.046875 1.0898 0.074219 1.6367 0.074219 0.54687 0 1.0898-0.027344 1.6367-0.074219l1.4336 4.3711c-1.0078 0.12891-2.0273 0.21875-3.0703 0.21875-1.043 0-2.0625-0.085938-3.0703-0.21875zm10.66-1.0234-1.1523-4.3711c3.6445-1.2695 6.8164-3.5742 9.1484-6.6484l3.7852 2.4375c-2.9258 3.9609-7.0195 6.9961-11.781 8.582z"/>
  <path d="m540.63 323.7c0.023438-0.44922 0.066407-0.89062 0.066407-1.3438 0-6.4531-2.2734-12.379-6.0508-17.035-0.023438-0.03125-0.027344-0.070313-0.054688-0.10156-0.015625-0.019531-0.039062-0.027344-0.058594-0.046875-0.26562-0.32031-0.55469-0.61719-0.83203-0.92578-0.019531-0.03125-0.023437-0.070312-0.046875-0.10156-0.078125-0.10938-0.18359-0.18359-0.28516-0.26172-2.3828-2.5508-5.2422-4.6328-8.4453-6.1172-0.074219-0.039062-0.13281-0.09375-0.21094-0.11719-0.015625-0.003906-0.03125 0-0.046875-0.003906-0.38281-0.17188-0.77344-0.33594-1.1641-0.48828-0.035156-0.019531-0.0625-0.050781-0.10156-0.0625-0.046875-0.019531-0.09375-0.011718-0.14062-0.023437-3.0078-1.1523-6.2578-1.8125-9.668-1.8125s-6.6602 0.66016-9.6641 1.8125c-0.046876 0.011719-0.097657 0.007812-0.14453 0.023437-0.039062 0.015625-0.0625 0.046875-0.10156 0.066406-0.39453 0.15625-0.78125 0.31641-1.1641 0.48828-0.015625 0.003906-0.03125 0-0.046875 0.003906-0.082031 0.027344-0.14062 0.082031-0.21484 0.12109-3.207 1.4844-6.0664 3.5703-8.4531 6.1211-0.097657 0.078124-0.19922 0.14844-0.27734 0.25391-0.023438 0.03125-0.023438 0.066406-0.042969 0.097656-0.27734 0.30859-0.57031 0.60547-0.83594 0.92969-0.015626 0.019531-0.039063 0.027343-0.058594 0.046874-0.023438 0.03125-0.03125 0.066407-0.050782 0.097657-3.7773 4.6602-6.0547 10.586-6.0547 17.039 0 0.45312 0.046875 0.89453 0.066406 1.3438-0.003906 0.058594-0.027343 0.11328-0.023437 0.17578 0.003906 0.058594 0.03125 0.10938 0.042968 0.16797 0.26172 4.2031 1.4648 8.1484 3.4336 11.621 0.027344 0.046875 0.035156 0.10156 0.066406 0.14453 0.011719 0.015625 0.03125 0.019532 0.042969 0.035156 0.19922 0.34766 0.41016 0.69141 0.625 1.0273 0.027344 0.050782 0.03125 0.10938 0.0625 0.16016 0.035157 0.054688 0.082031 0.097657 0.125 0.14453 3.5977 5.4844 9.1289 9.5703 15.621 11.32 0.046875 0.015625 0.082031 0.050782 0.12891 0.0625 0.082031 0.019532 0.16016 0.023438 0.24219 0.03125 2.1406 0.54688 4.3711 0.86719 6.6758 0.86719 2.3086 0 4.5352-0.32031 6.6758-0.86719 0.078125-0.007812 0.16016-0.011718 0.23828-0.03125 0.046876-0.011718 0.082032-0.046875 0.12891-0.0625 6.4883-1.75 12.023-5.8359 15.621-11.324 0.042969-0.046876 0.085938-0.089844 0.12109-0.14453 0.03125-0.050781 0.035156-0.10547 0.0625-0.15625 0.21484-0.33984 0.42578-0.67969 0.625-1.0273 0.011719-0.015624 0.03125-0.019531 0.042969-0.035156 0.03125-0.042968 0.039063-0.097656 0.066406-0.14453 1.9688-3.4727 3.1719-7.418 3.4336-11.621 0.011719-0.058593 0.039063-0.10938 0.042969-0.16797 0.011718-0.066406-0.015625-0.12109-0.019532-0.17969zm-50.699 3.1133 4.6055 0.011719c0.25 1.0625 0.58594 2.1055 1.0117 3.1133l-3.707 2.7109c-0.87109-1.8359-1.5234-3.7852-1.9102-5.8359zm12.109-25.59 1.4141 4.3906c-0.93359 0.56641-1.8203 1.207-2.6484 1.9219l-3.7188-2.6836c1.4883-1.4062 3.1445-2.6367 4.9531-3.6289zm28.059 3.6289-3.7188 2.6836c-0.82812-0.71484-1.7109-1.3594-2.6484-1.9258l1.4141-4.3906c1.8086 0.99609 3.4648 2.2266 4.9531 3.6328zm7.5781 17.344-4.5234-0.25391c-0.078125-3.8594-1.2891-7.5859-3.4961-10.754l3.4922-2.8477c2.8125 3.9141 4.4922 8.6875 4.5273 13.855zm-37.816-9.1016 1.0898 0.88672h0.003906c2.1602 1.7656 3.6836 2.7539 4.9102 3.5469l0.59375 0.38672c0.91797 0.60547 1.6133 1.0703 2.7812 3.0195-2.0898 0.89062-2.9258 0.85938-4.0273 0.80859l-0.69531-0.035156c-1.457-0.078126-3.2734-0.17188-6.0742-0.015626l-1.4023 0.078126c0.10938-3.1016 1.082-6.1016 2.8203-8.6758zm18.652 1.9023 0.1875-0.69531c0.35938-1.3438 0.80469-3.0117 1.7578-5.4648l0.53125-1.3711c0.078124 0.066406 0.14453 0.14453 0.24219 0.19531 1.4609 0.75781 2.8008 1.7305 3.9766 2.8867 0.078124 0.078125 0.17187 0.11719 0.26172 0.17188l-1.1406 0.92969v0.003906c-2.0352 1.6602-3.4805 2.5977-4.6445 3.3555l-0.61328 0.39844c-0.30469 0.19922-0.58984 0.40234-0.87109 0.61328 0.11328-0.33594 0.21484-0.67188 0.3125-1.0234zm11.633 6.7773-1.4023-0.078125c-2.793-0.15625-4.6133-0.0625-6.0742 0.015625l-0.69531 0.035156c-1.1016 0.050781-1.9336 0.082031-4.0273-0.80859 1.168-1.9531 1.8633-2.4141 2.7812-3.0195l0.59375-0.38672c1.2227-0.79297 2.7461-1.7852 4.9102-3.5469h0.003906l1.0898-0.88672c1.7383 2.5703 2.7109 5.5703 2.8203 8.6758zm-17.934 0.58203c0-0.76172 0.61719-1.3789 1.3789-1.3789s1.3789 0.61719 1.3789 1.3789-0.61719 1.3789-1.3789 1.3789c-0.75781 0-1.3789-0.62109-1.3789-1.3789zm-6.2617-14.695c0.097656-0.050781 0.16406-0.12891 0.24609-0.19531l0.53125 1.3711c0.95312 2.457 1.3984 4.125 1.7578 5.4648l0.1875 0.69922c0.097657 0.35156 0.19922 0.6875 0.31641 1.0195-0.28125-0.21484-0.56641-0.41406-0.87109-0.61328l-0.61328-0.39844c-1.1641-0.75391-2.6094-1.6953-4.6445-3.3555v-0.003906l-1.1367-0.92969c0.085938-0.054687 0.17969-0.09375 0.25781-0.16797 1.168-1.1602 2.5039-2.1289 3.9688-2.8906zm-5.8594 21.594-1.2344 0.79688c-0.027344-0.10156-0.03125-0.20313-0.082031-0.29688-0.73828-1.4766-1.2461-3.0469-1.5195-4.6719-0.019531-0.10938-0.074218-0.19531-0.11328-0.29297l1.4688-0.082031c2.6289-0.14844 4.3555-0.054688 5.7461 0.015624l0.71875 0.035157c0.28125 0.011719 0.55469 0.023437 0.82812 0.023437 0.078125 0 0.16016-0.003906 0.23828-0.003906-0.28906 0.19922-0.56641 0.41016-0.85156 0.64062l-0.55859 0.44922c-1.082 0.87109-2.4258 1.9609-4.6406 3.3867zm21.191-4.4727c0.27344 0 0.54297-0.007812 0.82812-0.023437l0.71875-0.035157c1.3867-0.074218 3.1133-0.16406 5.7461-0.015624l1.4688 0.082031c-0.039063 0.097656-0.09375 0.18359-0.10938 0.28906-0.26953 1.625-0.78125 3.1992-1.5195 4.6758-0.046875 0.097657-0.054688 0.19922-0.082031 0.30078l-1.2383-0.79688c-2.2109-1.4258-3.5547-2.5117-4.6328-3.3867l-0.56641-0.45703c-0.28516-0.22656-0.5625-0.4375-0.85156-0.64062 0.078125 0.003906 0.16016 0.007812 0.23828 0.007812zm-3.6367-17.039c-1.0117 2.6094-1.4805 4.3672-1.8594 5.7773l-0.18359 0.67578c-0.29297 1.0586-0.51953 1.8633-2.0117 3.5781-1.4961-1.7148-1.7227-2.5195-2.0117-3.5781l-0.18359-0.67578c-0.37891-1.4141-0.84766-3.168-1.8594-5.7773l-0.50781-1.3086c2.9883-0.85547 6.1406-0.85938 9.1289 0zm-23.609 0.59766 3.4922 2.8477c-2.2031 3.168-3.4141 6.8984-3.4961 10.754l-4.5234 0.25391c0.03125-5.168 1.7148-9.9414 4.5273-13.855zm7.6875 23.449c2.3555-1.5156 3.7695-2.6641 4.9062-3.582l0.54297-0.4375c0.85938-0.6875 1.5156-1.2031 3.7305-1.7109 0.19922 2.2656-0.085938 3.0508-0.47656 4.0781l-0.25391 0.66797c-0.52344 1.3633-1.1758 3.0586-1.8867 5.7539l-0.35937 1.3594c-2.9219-1.0625-5.4727-2.9141-7.3828-5.3633zm9.4141 6.9453c-0.10938-0.015625-0.21094 0.007813-0.3125 0.015625l0.375-1.4219c0.66797-2.5391 1.2891-4.1484 1.7852-5.4414l0.26172-0.6875c0.12891-0.34375 0.24219-0.67188 0.34375-1.0117 0.10156 0.33984 0.21484 0.66797 0.34375 1.0117l0.26172 0.6875c0.49609 1.293 1.1172 2.9062 1.7852 5.4414l0.375 1.4219c-0.10156-0.003906-0.20312-0.03125-0.30859-0.015625-1.625 0.24219-3.2812 0.24609-4.9102 0zm7.7617-2.1758c-0.71094-2.6953-1.3633-4.3906-1.8867-5.7539l-0.25391-0.66797c-0.38672-1.0312-0.67578-1.8125-0.47656-4.0781 2.2188 0.50781 2.875 1.0273 3.7305 1.7109l0.54688 0.44141c1.1367 0.92188 2.5469 2.0664 4.8984 3.5781l1.1797 0.76172c-1.9102 2.4492-4.4648 4.3047-7.3828 5.3633zm16.441-3.9141-3.707-2.7109c0.42188-1.0078 0.76172-2.0469 1.0117-3.1133l4.6055-0.011719c-0.38281 2.0547-1.0391 4.0039-1.9102 5.8359zm-14.453-33.246-1.6406 4.2266c-3.6953-1.1172-7.6133-1.1172-11.309 0l-1.6406-4.2266c2.3047-0.73438 4.7539-1.1367 7.2969-1.1367 2.5391 0 4.9883 0.40234 7.293 1.1367zm-26.664 37.223 3.7852-2.4375c2.332 3.0742 5.5039 5.3789 9.1484 6.6484l-1.1523 4.3711c-4.7656-1.5859-8.8555-4.6211-11.781-8.582zm16.297 9.6055 1.4336-4.3711c0.54688 0.046875 1.0898 0.074219 1.6367 0.074219s1.0898-0.027344 1.6367-0.074219l1.4336 4.3711c-1.0078 0.12891-2.0273 0.21875-3.0703 0.21875s-2.0625-0.085938-3.0703-0.21875zm10.66-1.0234-1.1523-4.3711c3.6445-1.2695 6.8164-3.5742 9.1484-6.6484l3.7852 2.4375c-2.9258 3.9609-7.0195 6.9961-11.781 8.582z"/>
  <path d="m445.47 314.34c-8.9375-2.3984-21.973-3.5-38.797-4.4219-18.551-1.0156-43.07-1.8594-60.375-2.3867-20.355-0.62109-34.266-0.91016-45.152-0.54688-10.77 0.36328-18.824 1.3867-25.344 3.2266-9.3711 2.6445-9.1758 4.5312-9.0898 5.3359 0.12109 1.1328 1.0664 1.7617 2.8086 1.8789 0.015625 0 0.03125-0.007813 0.046875-0.003906 0.015625 0 0.027344 0.007812 0.042969 0.007812 18 0.14062 33.195 0.30859 53.301 0.69922 28.824 0.55859 61.852 1.4336 84.145 2.2344 17.094 0.61328 29.215 1.2227 43.281 1.957 0.55859 0.050782 1.2578 0.11328 1.9766 0.11328 1.6523 0 3.3867-0.32813 3.6602-1.8711 0.47266-2.6875-5.4531-4.8672-10.504-6.2227zm-122.5 0.77344c-19-0.36719-33.621-0.53516-50.355-0.67578 1.0586-0.41016 2.3633-0.86328 4.0039-1.3242 6.2812-1.7734 14.105-2.7617 24.629-3.1133 10.801-0.36328 24.664-0.074219 44.957 0.54688 17.289 0.52734 41.781 1.3711 60.305 2.3867 16.637 0.91016 29.496 1.9922 38.18 4.3203 2.582 0.69141 4.5977 1.4336 6.0156 2.0664-0.042969-0.003906-0.085937-0.007812-0.12891-0.011718-0.011719 0-0.019531 0.003906-0.027344 0.003906s-0.015625-0.007813-0.027344-0.007813c-14.09-0.73438-26.227-1.3438-43.355-1.9609-22.309-0.79688-55.359-1.6719-84.195-2.2305z"/>
  <!-- <use x="70" y="644" xlink:href="#y"/>
  <use x="90.550781" y="644" xlink:href="#b"/>
  <use x="104.359375" y="644" xlink:href="#a"/>
  <use x="123.347656" y="644" xlink:href="#e"/>
  <use x="142.242188" y="644" xlink:href="#d"/>
  <use x="155.628906" y="644" xlink:href="#a"/>
  <use x="174.617188" y="644" xlink:href="#g"/>
  <use x="204.410156" y="644" xlink:href="#l"/>
  <use x="224.453125" y="644" xlink:href="#f"/>
  <use x="252.453125" y="644" xlink:href="#k"/>
  <use x="274.121094" y="644" xlink:href="#j"/>
  <use x="283.71875" y="644" xlink:href="#a"/>
  <use x="302.710938" y="644" xlink:href="#x"/>
  <use x="320.769531" y="644" xlink:href="#e"/>
  <use x="339.664062" y="644" xlink:href="#i"/>
  <use x="359.597656" y="644" xlink:href="#g"/>
  <use x="379.640625" y="644" xlink:href="#a"/>
  <use x="398.632812" y="644" xlink:href="#b"/>
  <use x="422.1875" y="644" xlink:href="#w"/>
  <use x="442.351562" y="644" xlink:href="#h"/>
  <use x="460.976562" y="644" xlink:href="#c"/>
  <use x="480.210938" y="644" xlink:href="#v"/>
  <use x="506.078125" y="644" xlink:href="#e"/>
  <use x="524.972656" y="644" xlink:href="#j"/>
  <use x="534.570312" y="644" xlink:href="#u"/>
  <use x="551.234375" y="644" xlink:href="#h"/>
  <use x="569.859375" y="644" xlink:href="#f"/>
  <use x="70" y="672" xlink:href="#t"/>
  <use x="82.183594" y="672" xlink:href="#b"/>
  <use x="95.992188" y="672" xlink:href="#c"/>
  <use x="115.226562" y="672" xlink:href="#s"/>
  <use x="154.152344" y="672" xlink:href="#d"/>
  <use x="167.535156" y="672" xlink:href="#r"/>
  <use x="187.46875" y="672" xlink:href="#a"/>
  <use x="216.207031" y="672" xlink:href="#q"/>
  <use x="239.640625" y="672" xlink:href="#c"/>
  <use x="258.878906" y="672" xlink:href="#p"/>
  <use x="278.8125" y="672" xlink:href="#i"/>
  <use x="308.492188" y="672" xlink:href="#o"/>
  <use x="329.015625" y="672" xlink:href="#b"/>
  <use x="342.820312" y="672" xlink:href="#c"/>
  <use x="362.058594" y="672" xlink:href="#n"/>
  <use x="371.65625" y="672" xlink:href="#a"/>
  <use x="390.648438" y="672" xlink:href="#m"/>
  <use x="407.242188" y="672" xlink:href="#d"/> -->
 </g>
</svg>
