<?xml version="1.0" encoding="UTF-8"?>
<svg width="700pt" height="700pt" version="1.1" viewBox="0 0 700 700" xmlns="http://www.w3.org/2000/svg" xmlns:xlink="http://www.w3.org/1999/xlink">
 <defs>
  <symbol id="v" overflow="visible">
   <path d="m1.8281-0.10938c-0.09375 0.054688-0.19531 0.089844-0.29688 0.10938-0.09375 0.019531-0.19922 0.03125-0.3125 0.03125-0.33594 0-0.60156-0.085938-0.79688-0.26562-0.1875-0.1875-0.28125-0.44141-0.28125-0.76562 0-0.3125 0.09375-0.5625 0.28125-0.75 0.19531-0.1875 0.46094-0.28125 0.79688-0.28125 0.11328 0 0.21875 0.015625 0.3125 0.046875 0.10156 0.023437 0.20312 0.058594 0.29688 0.10938v0.40625c-0.09375-0.0625-0.1875-0.10938-0.28125-0.14062s-0.19531-0.046875-0.29688-0.046875c-0.17969 0-0.32031 0.0625-0.42188 0.1875-0.10547 0.11719-0.15625 0.27344-0.15625 0.46875 0 0.21094 0.050781 0.375 0.15625 0.5 0.10156 0.11719 0.24219 0.17188 0.42188 0.17188 0.10156 0 0.20312-0.015625 0.29688-0.046875s0.1875-0.078125 0.28125-0.14062z"/>
  </symbol>
  <symbol id="f" overflow="visible">
   <path d="m1.3438-1.0938c-0.042969-0.019531-0.085938-0.03125-0.125-0.03125-0.042969-0.007812-0.085938-0.015625-0.125-0.015625-0.125 0-0.22656 0.042969-0.29688 0.125-0.0625 0.074219-0.09375 0.18359-0.09375 0.32812v0.6875h-0.46875v-1.5h0.46875v0.25c0.0625-0.09375 0.12891-0.16016 0.20312-0.20312 0.082031-0.050781 0.17969-0.078125 0.29688-0.078125h0.046875c0.019531 0 0.050781 0.007812 0.09375 0.015625z"/>
  </symbol>
  <symbol id="a" overflow="visible">
   <path d="m1.7188-0.75v0.14062h-1.1094c0.007813 0.10547 0.046875 0.1875 0.10938 0.25 0.070312 0.054687 0.17188 0.078125 0.29688 0.078125 0.10156 0 0.20703-0.015625 0.3125-0.046875 0.10156-0.03125 0.21094-0.070313 0.32812-0.125v0.35938c-0.11719 0.042969-0.23047 0.074219-0.34375 0.09375-0.11719 0.019531-0.23047 0.03125-0.34375 0.03125-0.27344 0-0.48047-0.066406-0.625-0.20312-0.14844-0.13281-0.21875-0.32812-0.21875-0.57812 0-0.23828 0.070312-0.42578 0.21875-0.5625 0.14453-0.14453 0.34766-0.21875 0.60938-0.21875 0.22656 0 0.41016 0.074219 0.54688 0.21875 0.14453 0.13672 0.21875 0.32422 0.21875 0.5625zm-0.48438-0.15625c0-0.09375-0.027344-0.16406-0.078125-0.21875-0.054688-0.0625-0.125-0.09375-0.21875-0.09375-0.085938 0-0.15625 0.027344-0.21875 0.078125-0.0625 0.054687-0.10156 0.13281-0.10938 0.23438z"/>
  </symbol>
  <symbol id="e" overflow="visible">
   <path d="m0.90625-0.67188c-0.10547 0-0.18359 0.015625-0.23438 0.046875-0.054687 0.03125-0.078125 0.085938-0.078125 0.15625 0 0.0625 0.019531 0.10938 0.0625 0.14062 0.039062 0.03125 0.097656 0.046875 0.17188 0.046875 0.09375 0 0.16406-0.03125 0.21875-0.09375 0.0625-0.0625 0.09375-0.14453 0.09375-0.25v-0.046875zm0.71875-0.1875v0.85938h-0.48438v-0.21875c-0.0625 0.09375-0.13672 0.16406-0.21875 0.20312-0.074219 0.03125-0.16797 0.046875-0.28125 0.046875-0.15625 0-0.28125-0.039062-0.375-0.125-0.09375-0.09375-0.14062-0.21094-0.14062-0.35938 0-0.17578 0.054688-0.30078 0.17188-0.375 0.125-0.082031 0.3125-0.125 0.5625-0.125h0.28125v-0.046875c0-0.070312-0.03125-0.125-0.09375-0.15625-0.054687-0.039062-0.14062-0.0625-0.26562-0.0625-0.10547 0-0.20312 0.011719-0.29688 0.03125-0.085937 0.023438-0.16406 0.054688-0.23438 0.09375v-0.35938c0.10156-0.03125 0.20703-0.050781 0.3125-0.0625 0.10156-0.007813 0.20312-0.015625 0.29688-0.015625 0.26953 0 0.46094 0.054688 0.57812 0.15625 0.125 0.10547 0.1875 0.27734 0.1875 0.51562z"/>
  </symbol>
  <symbol id="d" overflow="visible">
   <path d="m0.75-1.9219v0.42188h0.5v0.34375h-0.5v0.64062c0 0.0625 0.007812 0.10938 0.03125 0.14062 0.03125 0.023438 0.085938 0.03125 0.17188 0.03125h0.25v0.34375h-0.40625c-0.1875 0-0.32422-0.035156-0.40625-0.10938-0.074219-0.082031-0.10938-0.21875-0.10938-0.40625v-0.64062h-0.25v-0.34375h0.25v-0.42188z"/>
  </symbol>
  <symbol id="k" overflow="visible">
   <path d="m1.25-1.2812v-0.79688h0.48438v2.0781h-0.48438v-0.21875c-0.074219 0.09375-0.15234 0.16406-0.23438 0.20312-0.074219 0.03125-0.16406 0.046875-0.26562 0.046875-0.17969 0-0.32812-0.070312-0.45312-0.21875-0.11719-0.14453-0.17188-0.33203-0.17188-0.5625 0-0.22656 0.054688-0.41406 0.17188-0.5625 0.125-0.14453 0.27344-0.21875 0.45312-0.21875 0.10156 0 0.19141 0.023438 0.26562 0.0625 0.082031 0.042969 0.16016 0.10547 0.23438 0.1875zm-0.3125 0.96875c0.09375 0 0.16406-0.035156 0.21875-0.10938 0.0625-0.070313 0.09375-0.17969 0.09375-0.32812 0-0.13281-0.03125-0.23828-0.09375-0.3125-0.054688-0.082031-0.125-0.125-0.21875-0.125-0.10547 0-0.18359 0.042969-0.23438 0.125-0.054687 0.074219-0.078125 0.17969-0.078125 0.3125 0 0.14844 0.023438 0.25781 0.078125 0.32812 0.050781 0.074219 0.12891 0.10938 0.23438 0.10938z"/>
  </symbol>
  <symbol id="j" overflow="visible">
   <path d="m1.0312-0.3125c0.09375 0 0.16406-0.035156 0.21875-0.10938 0.0625-0.070313 0.09375-0.17969 0.09375-0.32812 0-0.13281-0.03125-0.23828-0.09375-0.3125-0.054688-0.082031-0.125-0.125-0.21875-0.125-0.10547 0-0.1875 0.042969-0.25 0.125-0.054688 0.074219-0.078125 0.17969-0.078125 0.3125 0 0.14844 0.023437 0.25781 0.078125 0.32812 0.0625 0.074219 0.14453 0.10938 0.25 0.10938zm-0.32812-0.96875c0.070313-0.082031 0.14453-0.14453 0.21875-0.1875 0.082031-0.039062 0.17578-0.0625 0.28125-0.0625 0.1875 0 0.33594 0.074219 0.45312 0.21875 0.11328 0.14844 0.17188 0.33594 0.17188 0.5625 0 0.23047-0.058594 0.41797-0.17188 0.5625-0.11719 0.14844-0.26562 0.21875-0.45312 0.21875-0.10547 0-0.19922-0.015625-0.28125-0.046875-0.074219-0.039062-0.14844-0.10938-0.21875-0.20312v0.21875h-0.46875v-2.0781h0.46875z"/>
  </symbol>
  <symbol id="i" overflow="visible">
   <path d="m0.03125-1.5h0.48438l0.39062 1.0156 0.34375-1.0156h0.48438l-0.625 1.6406c-0.0625 0.16406-0.14062 0.28125-0.23438 0.34375-0.085938 0.070313-0.19531 0.10938-0.32812 0.10938h-0.26562v-0.3125h0.14062c0.082031 0 0.14062-0.015625 0.17188-0.046875 0.039062-0.023437 0.070312-0.070313 0.09375-0.14062l0.015625-0.03125z"/>
  </symbol>
  <symbol id="c" overflow="visible">
   <path d="m1.3906-1.4531v0.375c-0.09375-0.050781-0.19531-0.085937-0.29688-0.10938-0.09375-0.019531-0.18359-0.03125-0.26562-0.03125-0.085937 0-0.15234 0.015625-0.20312 0.046875-0.042969 0.023437-0.0625 0.054687-0.0625 0.09375 0 0.042969 0.015625 0.074219 0.046875 0.09375 0.03125 0.023437 0.09375 0.039063 0.1875 0.046875l0.078125 0.015625c0.25 0.03125 0.41406 0.085937 0.5 0.15625 0.082031 0.0625 0.125 0.17188 0.125 0.32812s-0.0625 0.27734-0.1875 0.35938c-0.11719 0.074219-0.28906 0.10938-0.51562 0.10938-0.10547 0-0.21094-0.011719-0.3125-0.03125-0.10547-0.0078125-0.21094-0.03125-0.3125-0.0625v-0.35938c0.09375 0.054687 0.1875 0.089844 0.28125 0.10938 0.10156 0.023438 0.20703 0.03125 0.3125 0.03125 0.09375 0 0.16016-0.007812 0.20312-0.03125 0.050781-0.03125 0.078125-0.070312 0.078125-0.125 0-0.039062-0.015625-0.070312-0.046875-0.09375-0.03125-0.019531-0.10156-0.035156-0.20312-0.046875l-0.078125-0.015625c-0.21875-0.019531-0.37109-0.066406-0.45312-0.14062-0.085937-0.070313-0.125-0.17969-0.125-0.32812 0-0.15625 0.050781-0.26953 0.15625-0.34375 0.11328-0.082031 0.28125-0.125 0.5-0.125 0.09375 0 0.1875 0.011719 0.28125 0.03125 0.10156 0.011719 0.20703 0.027344 0.3125 0.046875z"/>
  </symbol>
  <symbol id="b" overflow="visible">
   <path d="m1.7344-0.90625v0.90625h-0.48438v-0.6875c0-0.13281-0.007812-0.22266-0.015625-0.26562 0-0.050781-0.007813-0.09375-0.015625-0.125-0.023438-0.03125-0.046875-0.050781-0.078125-0.0625-0.03125-0.019531-0.070313-0.03125-0.10938-0.03125-0.10547 0-0.1875 0.042969-0.25 0.125-0.054688 0.074219-0.078125 0.17969-0.078125 0.3125v0.73438h-0.46875v-2.0781h0.46875v0.79688c0.070313-0.082031 0.14844-0.14453 0.23438-0.1875 0.082031-0.039062 0.17188-0.0625 0.26562-0.0625 0.17578 0 0.30469 0.054688 0.39062 0.15625 0.09375 0.10547 0.14062 0.26172 0.14062 0.46875z"/>
  </symbol>
  <symbol id="h" overflow="visible">
   <path d="m1.7344-0.90625v0.90625h-0.48438v-0.70312c0-0.125-0.007812-0.20703-0.015625-0.25 0-0.050781-0.007813-0.09375-0.015625-0.125-0.023438-0.03125-0.046875-0.050781-0.078125-0.0625-0.03125-0.019531-0.070313-0.03125-0.10938-0.03125-0.10547 0-0.1875 0.042969-0.25 0.125-0.054688 0.074219-0.078125 0.17969-0.078125 0.3125v0.73438h-0.46875v-1.5h0.46875v0.21875c0.070313-0.082031 0.14844-0.14453 0.23438-0.1875 0.082031-0.039062 0.17188-0.0625 0.26562-0.0625 0.17578 0 0.30469 0.054688 0.39062 0.15625 0.09375 0.10547 0.14062 0.26172 0.14062 0.46875z"/>
  </symbol>
  <symbol id="u" overflow="visible">
   <path d="m0.23438-2.0781h0.46875v1.125l0.54688-0.54688h0.5625l-0.73438 0.6875 0.79688 0.8125h-0.57812l-0.59375-0.625v0.625h-0.46875z"/>
  </symbol>
  <symbol id="t" overflow="visible">
   <path d="m0.23438-1.5h0.46875v1.5h-0.46875zm0-0.57812h0.46875v0.39062h-0.46875z"/>
  </symbol>
  <symbol id="s" overflow="visible">
   <path d="m1.25-0.25c-0.074219 0.085938-0.15234 0.14844-0.23438 0.1875-0.074219 0.042969-0.16406 0.0625-0.26562 0.0625-0.17969 0-0.32812-0.070312-0.45312-0.21875-0.11719-0.14453-0.17188-0.32812-0.17188-0.54688s0.054688-0.39844 0.17188-0.54688c0.125-0.14453 0.27344-0.21875 0.45312-0.21875 0.10156 0 0.19141 0.023438 0.26562 0.0625 0.082031 0.042969 0.16016 0.10547 0.23438 0.1875v-0.21875h0.48438v1.3438c0 0.23828-0.078125 0.42188-0.23438 0.54688-0.15625 0.13281-0.375 0.20312-0.65625 0.20312-0.09375 0-0.1875-0.011719-0.28125-0.03125-0.085938-0.011719-0.16797-0.03125-0.25-0.0625v-0.375c0.082031 0.050781 0.16016 0.085938 0.23438 0.10938 0.082031 0.03125 0.16406 0.046875 0.25 0.046875 0.15625 0 0.26953-0.039062 0.34375-0.10938 0.070313-0.074219 0.10938-0.17969 0.10938-0.32812zm-0.3125-0.9375c-0.10547 0-0.18359 0.039062-0.23438 0.10938-0.054687 0.074219-0.078125 0.17969-0.078125 0.3125 0 0.13672 0.023438 0.24219 0.078125 0.3125 0.050781 0.074219 0.12891 0.10938 0.23438 0.10938 0.09375 0 0.16406-0.035156 0.21875-0.10938 0.0625-0.070313 0.09375-0.17578 0.09375-0.3125 0-0.13281-0.03125-0.23828-0.09375-0.3125-0.054688-0.070313-0.125-0.10938-0.21875-0.10938z"/>
  </symbol>
  <symbol id="r" overflow="visible">
   <path d="m1.2188-2.0781v0.3125h-0.26562c-0.074219 0-0.125 0.015625-0.15625 0.046875-0.023437 0.023438-0.03125 0.0625-0.03125 0.125v0.09375h0.40625v0.34375h-0.40625v1.1562h-0.46875v-1.1562h-0.25v-0.34375h0.25v-0.09375c0-0.16406 0.039063-0.28516 0.125-0.35938 0.09375-0.082031 0.23438-0.125 0.42188-0.125z"/>
  </symbol>
  <symbol id="g" overflow="visible">
   <path d="m0.9375-1.1875c-0.10547 0-0.1875 0.039062-0.25 0.10938-0.054688 0.074219-0.078125 0.18359-0.078125 0.32812 0 0.14844 0.023437 0.26172 0.078125 0.34375 0.0625 0.074219 0.14453 0.10938 0.25 0.10938 0.10156 0 0.17969-0.035156 0.23438-0.10938 0.0625-0.082031 0.09375-0.19531 0.09375-0.34375 0-0.14453-0.03125-0.25391-0.09375-0.32812-0.054687-0.070313-0.13281-0.10938-0.23438-0.10938zm0-0.34375c0.25781 0 0.46094 0.074219 0.60938 0.21875 0.14453 0.13672 0.21875 0.32422 0.21875 0.5625 0 0.25-0.074219 0.44531-0.21875 0.57812-0.14844 0.13672-0.35156 0.20312-0.60938 0.20312-0.26172 0-0.46484-0.066406-0.60938-0.20312-0.13672-0.13281-0.20312-0.32812-0.20312-0.57812 0-0.23828 0.066406-0.42578 0.20312-0.5625 0.14453-0.14453 0.34766-0.21875 0.60938-0.21875z"/>
  </symbol>
  <symbol id="q" overflow="visible">
   <path d="m1.6094-1.25c0.0625-0.09375 0.13281-0.16016 0.21875-0.20312 0.082031-0.050781 0.17578-0.078125 0.28125-0.078125 0.16406 0 0.29688 0.054688 0.39062 0.15625 0.09375 0.10547 0.14062 0.26172 0.14062 0.46875v0.90625h-0.48438v-0.78125-0.03125-0.0625c0-0.10156-0.015625-0.17578-0.046875-0.21875-0.03125-0.050781-0.085937-0.078125-0.15625-0.078125-0.085937 0-0.15234 0.039063-0.20312 0.10938-0.054688 0.074219-0.078125 0.18359-0.078125 0.32812v0.73438h-0.48438v-0.78125c0-0.16406-0.015625-0.26953-0.046875-0.3125-0.023437-0.050781-0.070313-0.078125-0.14062-0.078125-0.09375 0-0.16797 0.042969-0.21875 0.125-0.054688 0.074219-0.078125 0.17969-0.078125 0.3125v0.73438h-0.46875v-1.5h0.46875v0.21875c0.0625-0.082031 0.12891-0.14453 0.20312-0.1875 0.082031-0.039062 0.16406-0.0625 0.25-0.0625 0.10156 0 0.19141 0.027344 0.26562 0.078125 0.082031 0.054687 0.14453 0.12109 0.1875 0.20312z"/>
  </symbol>
  <symbol id="p" overflow="visible">
   <path d="m0.25-2h0.57812l0.71875 1.375v-1.375h0.48438v2h-0.5625l-0.73438-1.375v1.375h-0.48438z"/>
  </symbol>
  <symbol id="o" overflow="visible">
   <path d="m0.21875-0.57812v-0.92188h0.46875v0.15625 0.3125 0.23438 0.26562c0.007812 0.054688 0.023438 0.089844 0.046875 0.10938 0.019531 0.03125 0.046875 0.058594 0.078125 0.078125 0.03125 0.011719 0.066406 0.015625 0.10938 0.015625 0.09375 0 0.16406-0.035156 0.21875-0.10938 0.0625-0.070312 0.09375-0.17578 0.09375-0.3125v-0.75h0.48438v1.5h-0.48438v-0.21875c-0.074219 0.09375-0.15234 0.16406-0.23438 0.20312-0.074219 0.03125-0.15625 0.046875-0.25 0.046875-0.17969 0-0.3125-0.050781-0.40625-0.15625-0.085938-0.10156-0.125-0.25391-0.125-0.45312z"/>
  </symbol>
  <symbol id="n" overflow="visible">
   <path d="m0.25-2h0.85938c0.25 0 0.44141 0.058594 0.57812 0.17188 0.13281 0.11719 0.20312 0.27734 0.20312 0.48438 0 0.21094-0.070313 0.37109-0.20312 0.48438-0.13672 0.11719-0.32812 0.17188-0.57812 0.17188h-0.34375v0.6875h-0.51562zm0.51562 0.375v0.5625h0.28125c0.10156 0 0.17969-0.019531 0.23438-0.0625 0.050781-0.050781 0.078125-0.125 0.078125-0.21875s-0.027344-0.16016-0.078125-0.20312c-0.054688-0.050781-0.13281-0.078125-0.23438-0.078125z"/>
  </symbol>
  <symbol id="m" overflow="visible">
   <path d="m0.23438-1.5h0.46875v1.4688c0 0.20703-0.046875 0.36328-0.14062 0.46875-0.09375 0.10156-0.23438 0.15625-0.42188 0.15625h-0.23438v-0.3125h0.078125c0.09375 0 0.15625-0.023438 0.1875-0.0625 0.039063-0.042969 0.0625-0.125 0.0625-0.25zm0-0.57812h0.46875v0.39062h-0.46875z"/>
  </symbol>
  <symbol id="l" overflow="visible">
   <path d="m1.4375-1.4531v0.39062c-0.0625-0.039062-0.13281-0.070312-0.20312-0.09375-0.0625-0.019531-0.13281-0.03125-0.20312-0.03125-0.125 0-0.23047 0.042969-0.3125 0.125-0.074219 0.074219-0.10938 0.17969-0.10938 0.3125 0 0.14844 0.035156 0.26172 0.10938 0.34375 0.082031 0.074219 0.1875 0.10938 0.3125 0.10938 0.082031 0 0.15625-0.007813 0.21875-0.03125 0.070312-0.03125 0.13281-0.066406 0.1875-0.10938v0.39062c-0.074219 0.03125-0.15234 0.050781-0.23438 0.0625-0.074219 0.0078125-0.14844 0.015625-0.21875 0.015625-0.27344 0-0.48438-0.066406-0.64062-0.20312-0.14844-0.13281-0.21875-0.32812-0.21875-0.57812 0-0.23828 0.070312-0.42578 0.21875-0.5625 0.15625-0.14453 0.36719-0.21875 0.64062-0.21875 0.070313 0 0.14453 0.011719 0.21875 0.03125 0.082031 0.011719 0.16016 0.027344 0.23438 0.046875z"/>
  </symbol>
 </defs>
 <g>
  <path d="m586.4 335.65c-0.32031 0.18359-0.64844 0.35547-0.98438 0.51562-1.6055 0.80859 0.95703-0.32422-0.8125 0.32031-1.2109 0.44141-2.4688 0.75391-3.7227 1.0469-2.4883 0.57812-4.3945 0.78516-6.832 1.0039-4.8906 0.43359-9.8086 0.44141-14.719 0.44141-5.6133 0-11.227 0.058593-16.84 0.058593 1.9141 1.9141 3.8281 3.8281 5.7422 5.7422-0.82812-23.984-20.379-43.234-44.43-43.465-24.047-0.23438-43.617 19.832-44.434 43.465 1.9141-1.9141 3.8281-3.8281 5.7422-5.7422h-61.93-102.1-28.453c1.9141 1.9141 3.8281 3.8281 5.7422 5.7422-0.82813-23.988-20.383-43.234-44.434-43.465-23.969-0.23438-43.477 19.691-44.422 43.238 1.9141-1.9141 3.8281-3.8281 5.7422-5.7422h-76.039c-0.36328 0-0.72656-0.003906-1.0898-0.015625-0.71484-0.0625-0.75391-0.050781-0.11719 0.042969-0.5-0.070313-0.98828-0.19922-1.4766-0.33203-1.4922-0.40625 0.97656 0.53516-0.35156-0.10937-0.39453-0.19141-0.75781-0.4375-1.1172-0.68359 1.5508 1.0547-1.168-1.5312-0.011719-0.011719-0.28906-0.37891-1.3984-2.6055-0.82812-1.2305-0.33594-0.8125-0.55859-1.6719-0.75391-2.5273-0.10156-0.44141-0.17188-0.88672-0.24219-1.332 0.24219 1.4961 0.023438-0.023437 0.003907-0.28906-0.14062-1.6602-0.09375-3.3359 0.011719-5 0.046874-0.71875 0.12109-1.4297 0.20312-2.1445 0.16406-1.4297-0.19141 1.3008 0.011719-0.074219 0.054688-0.37109 0.11719-0.74219 0.17969-1.1133 0.26172-1.543 0.57812-3.0898 1.0078-4.5938-1.8438 1.4062-3.6914 2.8125-5.5391 4.2148h8.9648c4.0195 0 7.6055-5.0117 4.957-8.6406-0.023438-0.03125-0.046875-0.0625-0.070313-0.097656-3.0156-4.1328-8.6797-3.4922-10.496 1.3711-0.023438 0.0625-0.046876 0.125-0.070313 0.1875 3.5-0.45703 6.9961-0.91406 10.496-1.3711 0.55469 0.45312 0.61719 0.16797 0.17969-0.86719-0.13672-0.90625-0.24219-1.8125-0.35156-2.7227-0.21094-1.7344-0.37109-3.4766-0.52344-5.2188-0.29297-3.3438-0.44922-6.6992-0.53906-10.055-0.17969-6.6641 0.070312-13.34 0.61719-19.984 0.56641-6.8789 1.4453-13.852 3.1211-20.562-1.8438 1.4062-3.6914 2.8086-5.5391 4.2148h58.691 104.55 44.801c3.1289 0 5.7422-2.6133 5.7422-5.7422v-47.238-14.41c0 0.046876 0.17188-2.0977-0.003906-1.0352 0.019531-0.11328 0.57031-1.8438 0.089843-0.71484 0.19531-0.45703 0.47266-0.87109 0.75-1.2812-0.71094 1.0547 0.16016-0.027343 0.35938-0.20703-1.2109 1.1094 2.1797-0.95312 0.50391-0.28516 0.87891-0.34766 1.8125-0.55859 2.7383-0.72266-1.8281 0.32422 0.27734-0.003907 0.75781-0.023438 0.40234-0.019531 0.80859-0.015625 1.2148 0 1.8047 0.0625 3.6406-0.10938 5.4453-0.15234 10.492-0.24219 20.996-0.11719 31.492 0.042968 3.875 0.058594 7.7422 0.023438 11.602 0.44141 2.8398 0.30859 5.6719 1.043 8.4062 1.8633 2.8633 0.85938 4.1172 1.3828 6.4648 2.5469 1.4609 0.72266 2.875 1.5469 4.2422 2.4414 0.41797 0.27344 0.82812 0.5625 1.2305 0.85938 0.95703 0.70312-1.2539-1.0156-0.47266-0.35938-0.20703-0.17578 3.1836 2.4531 1.2969 0.98047 0.57813 0.45312 1.1406 0.92188 1.7031 1.3984 1.4375 1.2188 2.8242 2.4961 4.1953 3.7891 7.0039 6.6055 13.527 13.73 19.98 20.863 9.9141 10.957 19.582 22.145 29.039 33.496 1.9102 2.2891 5.7422 1.9375 8.4414 2.1836 4.3594 0.39844 8.7148 0.8125 13.07 1.2383 7.2227 0.70703 14.441 1.4688 21.656 2.2852 10.785 1.2188 19.746 2.3438 30.039 3.9219 8.3477 1.2812 16.945 2.4766 25.035 5.0039 0.39453 0.12109 0.78516 0.25 1.168 0.40234 0.03125 0.011719 0.058593 0.023437 0.089843 0.035156-3.9023-1.6211 0.31641 0.10938 0.027344 0.011719 2.3906 0.8125 5.5234 1.6992 7.4219 2.5469 2.2812 1.0195 3.957 2.1328 5.0938 3.9492 1.8672 2.9922 2.2812 7.5078 2.9258 10.938 1.4336 7.6641 1.9609 15.465 2.7031 23.215 0.23438 2.4648 0.53125 4.9141 0.87109 7.3672 0.25391 1.8164 2.2773 3.6523 4.0117 4.0117 0.30469 0.050781 0.60547 0.125 0.89844 0.22266-1.4531-0.42578 0.54688 0.5625-0.59375-0.35547 0.23047 0.19922 0.44922 0.41797 0.64844 0.64844-0.86719-0.92578 0.042968 0.16797 0.1875 0.41797 0.28516 0.58984 0.30078 0.59766 0.042968 0.023437 0.19531 0.5 0.32813 1.0195 0.45703 1.5391 0.085937 0.35937 0.15625 0.72266 0.21484 1.0859-0.21094-1.1836-0.003907 0.66797 0 0.75391 0.089843 2.1914-0.035157 2.625-0.76953 4.8867-0.24219 0.65234-0.26953 0.73828-0.082031 0.25391-0.23828 0.52344-0.53516 1.0195-0.83203 1.5117-0.87891 1.4453 0.63281-0.625-0.48438 0.61328-0.058594 0.0625-1.3945 1.1445-0.51953 0.52344-2.5469 1.8086-3.7461 4.9766-2.0586 7.8555 1.4766 2.5195 5.3008 3.875 7.8555 2.0586 5.7695-4.0977 8.4414-10.738 8.3828-17.715-0.054687-6.4766-3.332-13.977-10.293-15.41 1.3359 1.3359 2.6758 2.6719 4.0117 4.0117-1-7.1914-1.3477-14.809-2.2969-22.137-0.97266-7.5078-1.6484-16.926-6.1406-23.293-3.8633-5.4766-9.9961-7.8242-16.141-9.7969-0.39062-0.125-3.0742-1.0898-1.0977-0.23437-0.46875-0.20313-0.94141-0.40234-1.4141-0.59766-0.10938-0.042969-0.21875-0.085937-0.33203-0.125-6.0664-2.2031-12.75-3.1172-19.07-4.1953-26.121-4.457-52.598-6.9883-78.973-9.3516 1.3516 0.5625 2.707 1.1211 4.0625 1.6797-8.8086-10.59-17.832-21.012-27.027-31.266-6.582-7.3398-13.258-14.621-20.32-21.508-2.5391-2.4766-5.1406-4.9102-7.9375-7.0938-0.12891-0.10156-3.3828-2.7344-1.0586-0.79688-0.50391-0.41797-1.0352-0.80469-1.5508-1.207-0.94922-0.73047-1.9609-1.3789-2.9883-1.9961-9.7422-5.875-20.879-7.6758-32.078-7.8789-9.0195-0.16406-18.039-0.24219-27.059-0.1875-7.4492 0.042969-16.723-0.96484-23.531 2.7227-6.9375 3.7539-7.1797 11.133-7.1797 18v56.938c1.9141-1.9141 3.8281-3.8281 5.7422-5.7422h-58.691-104.55-44.801c-2.5078 0-4.9219 1.7461-5.5391 4.2148-1.9961 8.0078-2.9336 16.375-3.6094 24.582-0.57422 6.9766-0.70703 13.988-0.47656 20.984 0.125 3.7461 0.39844 7.4805 0.77344 11.211 0.19141 1.9219 0.44141 3.832 0.69922 5.7461 0.23438 1.7344 0.17188 4.2969 1.2734 5.7422 3.0781 4.0391 8.6523 3.5664 10.496-1.3711 0.023438-0.0625 0.046876-0.125 0.070313-0.1875-3.5 0.45703-6.9961 0.91406-10.496 1.3711 0.023438 0.03125 0.046875 0.0625 0.070313 0.097656 1.6523-2.8789 3.3047-5.7617 4.957-8.6406h-8.9648c-2.5742 0-4.832 1.7578-5.5391 4.2148-1.5742 5.4961-2.3672 11.656-1.6836 17.34 1.1289 9.3789 6.9883 16.605 17.012 16.605h38.637 37.727c3.2266 0 5.6172-2.6172 5.7422-5.7422 0.70703-17.625 15.355-31.582 32.938-31.754 17.695-0.17188 32.348 14.523 32.949 31.98 0.10938 3.1289 2.5312 5.7422 5.7422 5.7422h61.93 102.1 28.453c3.2109 0 5.6328-2.6133 5.7422-5.7422 0.61328-17.715 15.254-31.812 32.949-31.98 17.691-0.17188 32.34 14.527 32.945 31.98 0.10938 3.1289 2.5312 5.7422 5.7422 5.7422 5.7812 0 11.559-0.058594 17.34-0.058594 10.613 0 22.789 0.34766 32.367-4.8945 6.4844-3.5586 0.69141-13.477-5.8086-9.918z"/>
  <path d="m346.05 205.11v51.363c0 3.1289 2.6133 5.7422 5.7422 5.7422h36.82 24.672c3.8594 0 7.8789 0.34375 11.707-0.23828 4.6445-0.70312 8.75-4.0352 9.1484-8.8906 0.10156-1.2578-0.13672-2.5625-0.62109-3.7227-0.37891-0.91016-0.69531-1.6445-1.2109-2.457-0.26172-0.41016-1.75-2.9453-0.95313-1.2266-0.29687-0.64063-0.61328-1.2734-0.92969-1.9062-4.582-9.1406-10.254-17.777-16.832-25.602-1.9727-2.3477-4.0938-4.5703-6.3281-6.668-1.1055-1.0391-2.2656-2.0195-3.4453-2.9727-0.76953-0.62109-1.5625-1.2148-2.3477-1.8125-1.8594-1.4141 0.50391 0.49609-0.22656-0.13672-4.0469-3.5-9.1445-5.8438-14.406-6.75-6.9766-1.2031-14.488-0.46484-21.527-0.46484h-13.523c-7.4062 0-7.4062 11.484 0 11.484h19.461c7.1523 0 14.27-0.78125 20.434 2.8984 0.44141 0.26172 2.7539 1.9805 1.1172 0.69141 0.56641 0.44922 1.0508 0.88281 1.6641 1.3203 2.4844 1.7734 4.7227 3.8398 6.8711 6 4.207 4.2305 7.8125 8.9844 11.113 13.945 2.582 3.8789 4.9375 7.9062 7.1094 12.023 0.54297 1.0273 1.0664 2.0625 1.5703 3.1094 0.097656 0.20312 0.19531 0.40625 0.28906 0.60938 0.22266 0.47656 0.11328 0.23047 0.91797 1.2031 0.90625 1.0938 0.16406-0.22266 0.45312 0.73047-0.22266-0.73437-0.078125-1.5273 0.27734-2.1914 0.59766-1.1172-0.22656-0.16406 0.80078-0.85547-0.32422 0.21875-1.4453 0.65234 0.10156 0.035156-0.30078 0.11719-0.60938 0.20703-0.91797 0.29297-0.40234 0.11328-0.81641 0.19531-1.2344 0.25781 2.1016-0.31641 1.8125-0.19141 1.2305-0.19141h-4.6016-21.727-43.738-1.1914c1.9141 1.9141 3.8281 3.8281 5.7422 5.7422v-51.363c0.003906-7.4062-11.48-7.4062-11.48 0z"/>
  <path d="m536.76 345.75c-0.10938 11.391-5.8711 21.879-15.5 27.969-9.6914 6.1289-22.254 6.5938-32.41 1.4258-9.9883-5.082-16.914-15.219-17.891-26.332-0.99609-11.332 3.9531-22.738 13.062-29.465 10.055-7.4219 23.598-8.6289 34.68-3.0117 11.145 5.6484 17.891 17.059 18.059 29.414 0.10156 7.3984 11.586 7.4102 11.484 0-0.17969-13.121-5.8359-25.707-16.004-34.117-10.523-8.7109-24.105-11.883-37.465-9.3906-26.793 4.9961-42.484 35.395-32.102 60.27 8.2852 19.852 29.156 30.684 50.18 26.75 20.535-3.8398 35.191-23.02 35.391-43.512 0.074218-7.4102-11.41-7.4023-11.484 0z"/>
  <path d="m266.9 345.75c-0.10938 11.391-5.875 21.879-15.504 27.969-9.6914 6.1289-22.258 6.5938-32.41 1.4258-9.9883-5.082-16.91-15.219-17.887-26.332-0.97656-11.082 3.7539-22.375 12.555-29.094 9.8867-7.5469 23.387-9.1055 34.543-3.707 11.492 5.5547 18.539 17.113 18.703 29.738 0.097656 7.3984 11.582 7.4102 11.484 0-0.17188-13.121-5.8398-25.707-16.004-34.117-10.52-8.7031-24.09-11.879-37.445-9.3984-26.562 4.9336-42.203 34.801-32.402 59.602 7.9219 20.039 28.684 31.074 49.727 27.559 20.875-3.4883 35.922-22.914 36.125-43.648 0.074219-7.4062-11.41-7.3984-11.484 0.003906z"/>
  <path d="m132.51 288.41v22.875 1.3242c0 0.35547 0.097657-0.30859 0.57031-0.48828-0.71094 0.26953-2.5312 0.011718-3.4336 0.011718h-11.781c1.8438 1.4062 3.6914 2.8086 5.5391 4.2148-1.7109-10.922-2.0859-22.027-1.5938-33.059-1.9141 1.9141-3.8281 3.8281-5.7422 5.7422h9.8867 5.8594c1.8594-0.003906 0.76172 0.28125 0.69531-0.62109 0.23047 3.1211 2.4375 5.7422 5.7422 5.7422 2.957 0 5.9727-2.6172 5.7422-5.7422-0.41406-5.6484-4.2109-10.379-10.109-10.812-1.6133-0.11719-3.2422-0.054687-4.8633-0.054687h-12.957c-3.2344 0-5.6016 2.6172-5.7422 5.7422-0.53906 12.098 0.13281 24.148 2.0039 36.113 0.39062 2.4844 3.2031 4.2148 5.5391 4.2148h12.672c2.6211 0 5.2617 0.0625 7.6523-1.2617 3.6289-2.0117 5.8086-5.7031 5.8086-9.8555v-24.09c-0.003906-7.4023-11.488-7.4023-11.488 0.003906z"/>
  <path d="m587.91 304.45h-11.34c-3.9375 0-7.9141 0.71875-9.9688-2.5508-1.3125-2.0859-0.78125-5.2812 1.6055-6.8984 1.5352-1.0352 3.3203-0.84766 5.0742-0.84766h12.086c-1.8438-1.4062-3.6914-2.8086-5.5391-4.2148 1.1328 6.707 1.7148 13.48 2.3359 20.25 0.28516 3.1172 2.3945 5.7422 5.7422 5.7422 2.9141 0 6.0273-2.6211 5.7422-5.7422-0.71484-7.793-1.4414-15.582-2.7461-23.305-0.42188-2.4844-3.1797-4.2148-5.5391-4.2148h-13.707c-11.25 0-19.277 10.09-16.652 21.051 1.2344 5.1523 5.4414 9.2891 10.273 11.148 2.6211 1.0078 5.3438 1.0586 8.1016 1.0586h14.527c7.4102 0.007813 7.4102-11.477 0.003906-11.477z"/>
  <path d="m356.82 291h15.418c7.4062 0 7.4062-11.484 0-11.484h-15.418c-7.4062 0-7.4062 11.484 0 11.484z"/>
  <!-- <use x="70" y="568.203125" xlink:href="#v"/>
  <use x="72.007812" y="568.203125" xlink:href="#f"/>
  <use x="73.355469" y="568.203125" xlink:href="#a"/>
  <use x="75.210937" y="568.203125" xlink:href="#e"/>
  <use x="77.054688" y="568.203125" xlink:href="#d"/>
  <use x="78.363281" y="568.203125" xlink:href="#a"/>
  <use x="80.214844" y="568.203125" xlink:href="#k"/>
  <use x="83.125" y="568.203125" xlink:href="#j"/>
  <use x="85.082031" y="568.203125" xlink:href="#i"/>
  <use x="87.816406" y="568.203125" xlink:href="#c"/>
  <use x="89.445312" y="568.203125" xlink:href="#b"/>
  <use x="91.390625" y="568.203125" xlink:href="#e"/>
  <use x="93.238281" y="568.203125" xlink:href="#c"/>
  <use x="94.863281" y="568.203125" xlink:href="#b"/>
  <use x="96.8125" y="568.203125" xlink:href="#e"/>
  <use x="98.65625" y="568.203125" xlink:href="#h"/>
  <use x="100.601562" y="568.203125" xlink:href="#u"/>
  <use x="103.375" y="568.203125" xlink:href="#c"/>
  <use x="105" y="568.203125" xlink:href="#t"/>
  <use x="105.9375" y="568.203125" xlink:href="#h"/>
  <use x="107.882812" y="568.203125" xlink:href="#s"/>
  <use x="109.84375" y="568.203125" xlink:href="#b"/>
  <use x="70" y="570.9375" xlink:href="#r"/>
  <use x="71.191406" y="570.9375" xlink:href="#f"/>
  <use x="72.539062" y="570.9375" xlink:href="#g"/>
  <use x="74.417969" y="570.9375" xlink:href="#q"/>
  <use x="78.21875" y="570.9375" xlink:href="#d"/>
  <use x="79.523437" y="570.9375" xlink:href="#b"/>
  <use x="81.472656" y="570.9375" xlink:href="#a"/>
  <use x="84.277344" y="570.9375" xlink:href="#p"/>
  <use x="86.566406" y="570.9375" xlink:href="#g"/>
  <use x="88.445312" y="570.9375" xlink:href="#o"/>
  <use x="90.390625" y="570.9375" xlink:href="#h"/>
  <use x="93.289062" y="570.9375" xlink:href="#n"/>
  <use x="95.292969" y="570.9375" xlink:href="#f"/>
  <use x="96.644531" y="570.9375" xlink:href="#g"/>
  <use x="98.519531" y="570.9375" xlink:href="#m"/>
  <use x="99.457031" y="570.9375" xlink:href="#a"/>
  <use x="101.3125" y="570.9375" xlink:href="#l"/>
  <use x="102.933594" y="570.9375" xlink:href="#d"/> -->
 </g>
</svg>
