<?xml version="1.0" encoding="UTF-8"?>
<svg width="700pt" height="700pt" version="1.1" viewBox="0 0 700 700" xmlns="http://www.w3.org/2000/svg" xmlns:xlink="http://www.w3.org/1999/xlink">
 <defs>
  <symbol id="s" overflow="visible">
   <path d="m2.2188-0.125c-0.11719 0.054688-0.23438 0.09375-0.35938 0.125s-0.25781 0.046875-0.39062 0.046875c-0.39844 0-0.71484-0.10938-0.95312-0.32812-0.23047-0.22656-0.34375-0.53516-0.34375-0.92188 0-0.38281 0.11328-0.6875 0.34375-0.90625 0.23828-0.22656 0.55469-0.34375 0.95312-0.34375 0.13281 0 0.26562 0.015625 0.39062 0.046875 0.125 0.023438 0.24219 0.0625 0.35938 0.125v0.5c-0.11719-0.070312-0.23047-0.125-0.34375-0.15625-0.11719-0.039062-0.23047-0.0625-0.34375-0.0625-0.23047 0-0.40625 0.074219-0.53125 0.21875-0.125 0.13672-0.1875 0.32812-0.1875 0.57812s0.0625 0.44922 0.1875 0.59375c0.125 0.13672 0.30078 0.20312 0.53125 0.20312 0.11328 0 0.22656-0.015625 0.34375-0.046875 0.11328-0.039063 0.22656-0.097656 0.34375-0.17188z"/>
  </symbol>
  <symbol id="b" overflow="visible">
   <path d="m1.625-1.3125c-0.054688-0.03125-0.10547-0.050781-0.15625-0.0625-0.054688-0.007812-0.10156-0.015625-0.14062-0.015625-0.15625 0-0.27734 0.054687-0.35938 0.15625-0.074219 0.09375-0.10938 0.23047-0.10938 0.40625v0.82812h-0.57812v-1.8125h0.57812v0.29688c0.070313-0.11328 0.15625-0.19531 0.25-0.25 0.10156-0.0625 0.21875-0.09375 0.34375-0.09375 0.019531 0 0.039063 0.007813 0.0625 0.015625h0.10938z"/>
  </symbol>
  <symbol id="a" overflow="visible">
   <path d="m2.0938-0.90625v0.15625h-1.3594c0.007813 0.13672 0.054687 0.24219 0.14062 0.3125 0.082031 0.0625 0.20312 0.09375 0.35938 0.09375 0.125 0 0.25-0.015625 0.375-0.046875 0.125-0.039063 0.25391-0.097656 0.39062-0.17188v0.45312c-0.13672 0.054688-0.27344 0.089844-0.40625 0.10938-0.13672 0.03125-0.27734 0.046875-0.42188 0.046875-0.32422 0-0.57812-0.082031-0.76562-0.25-0.17969-0.16406-0.26562-0.39844-0.26562-0.70312 0-0.28906 0.085937-0.51953 0.26562-0.6875 0.17578-0.17578 0.42188-0.26562 0.73438-0.26562 0.28906 0 0.51953 0.089844 0.6875 0.26562 0.17578 0.16797 0.26562 0.39844 0.26562 0.6875zm-0.60938-0.20312c0-0.10156-0.03125-0.1875-0.09375-0.25-0.0625-0.070313-0.14844-0.10938-0.25-0.10938-0.11719 0-0.21094 0.03125-0.28125 0.09375-0.0625 0.0625-0.10547 0.15234-0.125 0.26562z"/>
  </symbol>
  <symbol id="f" overflow="visible">
   <path d="m1.0938-0.8125c-0.125 0-0.21875 0.023438-0.28125 0.0625-0.0625 0.042969-0.09375 0.10156-0.09375 0.17188 0 0.074219 0.023438 0.13281 0.078125 0.17188 0.050781 0.042969 0.11719 0.0625 0.20312 0.0625 0.11328 0 0.20703-0.035156 0.28125-0.10938 0.070312-0.082031 0.10938-0.17969 0.10938-0.29688v-0.0625zm0.875-0.21875v1.0312h-0.57812v-0.26562c-0.074219 0.10547-0.16406 0.18359-0.26562 0.23438-0.09375 0.050781-0.21094 0.078125-0.34375 0.078125-0.1875 0-0.34375-0.050781-0.46875-0.15625-0.11719-0.11328-0.17188-0.25781-0.17188-0.4375 0-0.20703 0.070313-0.35938 0.21875-0.45312 0.14453-0.10156 0.375-0.15625 0.6875-0.15625h0.34375v-0.046875c0-0.09375-0.039063-0.16016-0.10938-0.20312-0.074219-0.039062-0.1875-0.0625-0.34375-0.0625-0.11719 0-0.23047 0.015625-0.34375 0.046875-0.10547 0.023437-0.20312 0.054687-0.29688 0.09375v-0.4375c0.125-0.03125 0.25-0.050781 0.375-0.0625 0.125-0.019531 0.25-0.03125 0.375-0.03125 0.33203 0 0.56641 0.070313 0.70312 0.20312 0.14453 0.125 0.21875 0.33594 0.21875 0.625z"/>
  </symbol>
  <symbol id="c" overflow="visible">
   <path d="m0.90625-2.3281v0.51562h0.59375v0.42188h-0.59375v0.76562c0 0.085938 0.015625 0.14062 0.046875 0.17188 0.039063 0.023437 0.10938 0.03125 0.20312 0.03125h0.29688v0.42188h-0.5c-0.21875 0-0.38281-0.046875-0.48438-0.14062-0.09375-0.09375-0.14062-0.25391-0.14062-0.48438v-0.76562h-0.28125v-0.42188h0.28125v-0.51562z"/>
  </symbol>
  <symbol id="e" overflow="visible">
   <path d="m1.5156-1.5469v-0.96875h0.57812v2.5156h-0.57812v-0.26562c-0.085937 0.10547-0.17188 0.18359-0.26562 0.23438s-0.21094 0.078125-0.34375 0.078125c-0.21875 0-0.40234-0.085938-0.54688-0.26562-0.13672-0.17578-0.20312-0.40625-0.20312-0.6875s0.066406-0.50781 0.20312-0.6875c0.14453-0.17578 0.32812-0.26562 0.54688-0.26562 0.125 0 0.23438 0.027344 0.32812 0.078125 0.10156 0.054688 0.19531 0.13281 0.28125 0.23438zm-0.39062 1.1719c0.125 0 0.21875-0.039062 0.28125-0.125 0.070312-0.09375 0.10938-0.22656 0.10938-0.40625 0-0.16406-0.039063-0.29688-0.10938-0.39062-0.0625-0.09375-0.15625-0.14062-0.28125-0.14062s-0.21875 0.046875-0.28125 0.14062-0.09375 0.22656-0.09375 0.39062c0 0.17969 0.03125 0.3125 0.09375 0.40625 0.0625 0.085938 0.15625 0.125 0.28125 0.125z"/>
  </symbol>
  <symbol id="k" overflow="visible">
   <path d="m1.25-0.375c0.11328 0 0.20312-0.039062 0.26562-0.125 0.070313-0.09375 0.10938-0.22656 0.10938-0.40625 0-0.16406-0.039062-0.29688-0.10938-0.39062-0.0625-0.09375-0.15234-0.14062-0.26562-0.14062-0.125 0-0.22656 0.046875-0.29688 0.14062-0.0625 0.09375-0.09375 0.22656-0.09375 0.39062 0 0.17969 0.03125 0.3125 0.09375 0.40625 0.070313 0.085938 0.17188 0.125 0.29688 0.125zm-0.39062-1.1719c0.082031-0.10156 0.17188-0.17969 0.26562-0.23438 0.09375-0.050781 0.20312-0.078125 0.32812-0.078125 0.22656 0 0.41016 0.089844 0.54688 0.26562 0.14453 0.17969 0.21875 0.40625 0.21875 0.6875s-0.074219 0.51172-0.21875 0.6875c-0.13672 0.17969-0.32031 0.26562-0.54688 0.26562-0.125 0-0.23438-0.027344-0.32812-0.078125s-0.18359-0.12891-0.26562-0.23438v0.26562h-0.57812v-2.5156h0.57812z"/>
  </symbol>
  <symbol id="j" overflow="visible">
   <path d="m0.046875-1.8125h0.57812l0.48438 1.2344 0.40625-1.2344h0.57812l-0.75 1.9844c-0.085938 0.19531-0.17969 0.33594-0.28125 0.42188-0.09375 0.082031-0.22656 0.125-0.39062 0.125h-0.34375v-0.39062h0.1875c0.09375 0 0.16016-0.015625 0.20312-0.046875 0.050781-0.03125 0.085938-0.085938 0.10938-0.15625l0.015625-0.0625z"/>
  </symbol>
  <symbol id="i" overflow="visible">
   <path d="m0.28125-1.8125h0.57812v1.8125h-0.57812zm0-0.70312h0.57812v0.46875h-0.57812z"/>
  </symbol>
  <symbol id="h" overflow="visible">
   <path d="m1.7344-1.75v0.46875c-0.074219-0.050781-0.15234-0.085938-0.23438-0.10938-0.074219-0.03125-0.15234-0.046875-0.23438-0.046875-0.16797 0-0.29688 0.046875-0.39062 0.14062-0.085938 0.09375-0.125 0.22656-0.125 0.39062 0 0.16797 0.039062 0.30469 0.125 0.40625 0.09375 0.09375 0.22266 0.14062 0.39062 0.14062 0.082031 0 0.16406-0.015625 0.25-0.046875 0.082031-0.03125 0.15625-0.070312 0.21875-0.125v0.48438c-0.085937 0.03125-0.17188 0.050781-0.26562 0.0625-0.09375 0.019531-0.1875 0.03125-0.28125 0.03125-0.32422 0-0.57812-0.082031-0.76562-0.25-0.1875-0.16406-0.28125-0.39844-0.28125-0.70312 0-0.30078 0.09375-0.53516 0.28125-0.70312 0.1875-0.16406 0.44141-0.25 0.76562-0.25 0.09375 0 0.1875 0.011719 0.28125 0.03125 0.09375 0.011719 0.17969 0.039063 0.26562 0.078125z"/>
  </symbol>
  <symbol id="g" overflow="visible">
   <path d="m2.0938-1.1094v1.1094h-0.57812v-0.84375c0-0.15625-0.007813-0.25781-0.015625-0.3125 0-0.0625-0.011719-0.10938-0.03125-0.14062-0.023438-0.039063-0.054688-0.070313-0.09375-0.09375-0.042969-0.019531-0.085938-0.03125-0.125-0.03125-0.125 0-0.22656 0.046875-0.29688 0.14062-0.0625 0.09375-0.09375 0.22656-0.09375 0.39062v0.89062h-0.57812v-2.5156h0.57812v0.96875c0.082031-0.10156 0.17188-0.17969 0.26562-0.23438 0.10156-0.050781 0.21094-0.078125 0.32812-0.078125 0.21875 0 0.37891 0.070313 0.48438 0.20312 0.10156 0.125 0.15625 0.30859 0.15625 0.54688z"/>
  </symbol>
  <symbol id="r" overflow="visible">
   <path d="m1.4688-2.5156v0.375h-0.3125c-0.085938 0-0.14062 0.015625-0.17188 0.046875s-0.046875 0.085938-0.046875 0.15625v0.125h0.48438v0.42188h-0.48438v1.3906h-0.59375v-1.3906h-0.28125v-0.42188h0.28125v-0.125c0-0.19531 0.054688-0.34375 0.17188-0.4375 0.11328-0.09375 0.28516-0.14062 0.51562-0.14062z"/>
  </symbol>
  <symbol id="d" overflow="visible">
   <path d="m1.1406-1.4375c-0.125 0-0.22656 0.046875-0.29688 0.14062-0.0625 0.085937-0.09375 0.21484-0.09375 0.39062 0 0.17969 0.03125 0.3125 0.09375 0.40625 0.070312 0.09375 0.17188 0.14062 0.29688 0.14062s0.21875-0.046875 0.28125-0.14062c0.070313-0.09375 0.10938-0.22656 0.10938-0.40625 0-0.17578-0.039062-0.30469-0.10938-0.39062-0.0625-0.09375-0.15625-0.14062-0.28125-0.14062zm0-0.42188c0.3125 0 0.55469 0.089844 0.73438 0.26562 0.17578 0.16797 0.26562 0.39844 0.26562 0.6875 0 0.30469-0.089844 0.53906-0.26562 0.70312-0.17969 0.16797-0.42188 0.25-0.73438 0.25s-0.55859-0.082031-0.73438-0.25c-0.17969-0.16406-0.26562-0.39844-0.26562-0.70312 0-0.28906 0.085937-0.51953 0.26562-0.6875 0.17578-0.17578 0.42188-0.26562 0.73438-0.26562z"/>
  </symbol>
  <symbol id="q" overflow="visible">
   <path d="m1.9531-1.5156c0.070313-0.10156 0.16016-0.1875 0.26562-0.25 0.10156-0.0625 0.21094-0.09375 0.32812-0.09375 0.20703 0 0.36328 0.070313 0.46875 0.20312 0.11328 0.125 0.17188 0.30859 0.17188 0.54688v1.1094h-0.57812v-0.9375-0.046875-0.0625c0-0.13281-0.023437-0.22656-0.0625-0.28125-0.03125-0.0625-0.089844-0.09375-0.17188-0.09375-0.11719 0-0.20312 0.046875-0.26562 0.14062-0.054687 0.09375-0.085937 0.22656-0.09375 0.39062v0.89062h-0.57812v-0.9375c0-0.20703-0.015625-0.33594-0.046875-0.39062-0.03125-0.0625-0.09375-0.09375-0.1875-0.09375-0.11719 0-0.20312 0.046875-0.26562 0.14062-0.054688 0.09375-0.078125 0.22656-0.078125 0.39062v0.89062h-0.57812v-1.8125h0.57812v0.26562c0.070313-0.10156 0.14844-0.17969 0.23438-0.23438 0.09375-0.050781 0.19531-0.078125 0.3125-0.078125 0.125 0 0.23438 0.03125 0.32812 0.09375s0.16406 0.14844 0.21875 0.25z"/>
  </symbol>
  <symbol id="p" overflow="visible">
   <path d="m0.29688-2.4219h0.70312l0.875 1.6562v-1.6562h0.59375v2.4219h-0.70312l-0.875-1.6562v1.6562h-0.59375z"/>
  </symbol>
  <symbol id="o" overflow="visible">
   <path d="m0.26562-0.70312v-1.1094h0.57812v0.1875 0.375 0.28125 0.32812c0.007812 0.0625 0.023438 0.10547 0.046875 0.125 0.019531 0.042969 0.046875 0.074219 0.078125 0.09375 0.039062 0.023437 0.085938 0.03125 0.14062 0.03125 0.125 0 0.21875-0.046875 0.28125-0.14062 0.070313-0.09375 0.10938-0.22266 0.10938-0.39062v-0.89062h0.57812v1.8125h-0.57812v-0.26562c-0.085938 0.10547-0.17969 0.18359-0.28125 0.23438-0.09375 0.050781-0.19922 0.078125-0.3125 0.078125-0.21094 0-0.37109-0.0625-0.48438-0.1875-0.10547-0.13281-0.15625-0.32031-0.15625-0.5625z"/>
  </symbol>
  <symbol id="n" overflow="visible">
   <path d="m2.0938-1.1094v1.1094h-0.57812v-0.84375c0-0.15625-0.007813-0.25781-0.015625-0.3125 0-0.0625-0.011719-0.10938-0.03125-0.14062-0.023438-0.039063-0.054688-0.070313-0.09375-0.09375-0.042969-0.019531-0.085938-0.03125-0.125-0.03125-0.125 0-0.22656 0.046875-0.29688 0.14062-0.0625 0.09375-0.09375 0.22656-0.09375 0.39062v0.89062h-0.57812v-1.8125h0.57812v0.26562c0.082031-0.10156 0.17188-0.17969 0.26562-0.23438 0.10156-0.050781 0.21094-0.078125 0.32812-0.078125 0.21875 0 0.37891 0.070313 0.48438 0.20312 0.10156 0.125 0.15625 0.30859 0.15625 0.54688z"/>
  </symbol>
  <symbol id="m" overflow="visible">
   <path d="m0.29688-2.4219h1.0469c0.30078 0 0.53516 0.074219 0.70312 0.21875 0.16406 0.13672 0.25 0.32812 0.25 0.57812s-0.085937 0.44531-0.25 0.57812c-0.16797 0.13672-0.40234 0.20312-0.70312 0.20312h-0.42188v0.84375h-0.625zm0.625 0.45312v0.67188h0.34375c0.125 0 0.21875-0.023437 0.28125-0.078125 0.070313-0.0625 0.10938-0.14453 0.10938-0.25 0-0.10156-0.039062-0.1875-0.10938-0.25-0.0625-0.0625-0.15625-0.09375-0.28125-0.09375z"/>
  </symbol>
  <symbol id="l" overflow="visible">
   <path d="m0.28125-1.8125h0.57812v1.7812c0 0.23828-0.058594 0.42188-0.17188 0.54688-0.11719 0.13281-0.28906 0.20312-0.51562 0.20312h-0.28125v-0.39062h0.09375c0.11328 0 0.19141-0.027344 0.23438-0.078125 0.039062-0.042969 0.0625-0.13672 0.0625-0.28125zm0-0.70312h0.57812v0.46875h-0.57812z"/>
  </symbol>
 </defs>
 <g>
  <path d="m124.1 235.23c-19.121 21.875-18.051 54.602-10.82 81.039l19.691-0.046876c7.2617-26.145 31.191-44.441 58.43-44.441 27.18 0 51.047 18.09 58.363 44.164l200.73-0.47656c7.5195-25.77 31.254-43.688 58.211-43.688 26.914 0 50.559 17.715 58.152 43.414l23.996-0.058594c-1.1367-16.648-0.74609-24.922-5.0859-32.164-13.051-21.723-68.219-37.027-91.27-41.742-0.88672-0.17969-1.7266-0.46875-2.5117-0.83984-71.883-33.852-116.64-50.66-160.05-51.281-43.414-0.62109-87.32 14.895-157.48 45.652-1.6523 0.71484-3.3945 1.0039-5.0781 0.89844zm6.957 103.14-25.98 0.058594c-4.6445 0-8.9609-2.9492-10.504-7.5938-12.652-37.965-13.492-84.742 17.023-114.61 2.0312-1.9766 4.8086-3.1875 7.8594-3.168l48.266 0.45703c71.789-31.379 117.5-47.207 164.48-46.539 47.238 0.67578 94.035 17.977 168.11 52.828 29.789 6.2305 86.773 23.746 105.65 49.824 10.516 14.559 7.5664 30.215 6.6797 56.902-0.19141 5.9531-5.0742 10.723-11.066 10.723l-32.43 0.074219c-2.5195 31.406-28.891 55.719-60.434 55.719-31.445 0-57.781-24.102-60.406-55.426l-196.52 0.46484c-2.8828 31.074-29.129 54.965-60.375 54.965-31.211 0-57.273-23.664-60.34-54.672zm60.34-44.363c-21.258 0-38.402 17.145-38.402 38.41 0 21.199 17.203 38.402 38.402 38.402 21.258 0 38.41-17.152 38.41-38.402 0-21.207-17.203-38.41-38.41-38.41zm317.3 0c-21.258 0-38.402 17.145-38.402 38.41 0 21.199 17.203 38.402 38.402 38.402 21.258 0 38.41-17.152 38.41-38.402 0-21.207-17.203-38.41-38.41-38.41zm-329.52-51.543c131.88-60.66 171.76-58.25 306.81 0.72656z"/>
  <!-- <use x="70" y="569.921875" xlink:href="#s"/>
  <use x="72.425781" y="569.921875" xlink:href="#b"/>
  <use x="74.058594" y="569.921875" xlink:href="#a"/>
  <use x="76.300781" y="569.921875" xlink:href="#f"/>
  <use x="78.53125" y="569.921875" xlink:href="#c"/>
  <use x="80.113281" y="569.921875" xlink:href="#a"/>
  <use x="82.355469" y="569.921875" xlink:href="#e"/>
  <use x="85.875" y="569.921875" xlink:href="#k"/>
  <use x="88.242188" y="569.921875" xlink:href="#j"/>
  <use x="91.550781" y="569.921875" xlink:href="#b"/>
  <use x="93.179688" y="569.921875" xlink:href="#i"/>
  <use x="94.3125" y="569.921875" xlink:href="#h"/>
  <use x="96.273438" y="569.921875" xlink:href="#g"/>
  <use x="98.628906" y="569.921875" xlink:href="#f"/>
  <use x="100.859375" y="569.921875" xlink:href="#e"/>
  <use x="70" y="573.226562" xlink:href="#r"/>
  <use x="71.4375" y="573.226562" xlink:href="#b"/>
  <use x="73.070312" y="573.226562" xlink:href="#d"/>
  <use x="75.339844" y="573.226562" xlink:href="#q"/>
  <use x="79.9375" y="573.226562" xlink:href="#c"/>
  <use x="81.519531" y="573.226562" xlink:href="#g"/>
  <use x="83.875" y="573.226562" xlink:href="#a"/>
  <use x="87.269531" y="573.226562" xlink:href="#p"/>
  <use x="90.035156" y="573.226562" xlink:href="#d"/>
  <use x="92.308594" y="573.226562" xlink:href="#o"/>
  <use x="94.664062" y="573.226562" xlink:href="#n"/>
  <use x="98.167969" y="573.226562" xlink:href="#m"/>
  <use x="100.59375" y="573.226562" xlink:href="#b"/>
  <use x="102.222656" y="573.226562" xlink:href="#d"/>
  <use x="104.496094" y="573.226562" xlink:href="#l"/>
  <use x="105.628906" y="573.226562" xlink:href="#a"/>
  <use x="107.871094" y="573.226562" xlink:href="#h"/>
  <use x="109.832031" y="573.226562" xlink:href="#c"/> -->
 </g>
</svg>
