<?xml version="1.0" encoding="UTF-8"?>
<svg width="700pt" height="700pt" version="1.1" viewBox="0 0 700 700" xmlns="http://www.w3.org/2000/svg">
 <path d="m210 373.33h2.1484c3.1914 9.1484 10.051 16.551 18.93 20.426 8.875 3.8789 18.969 3.8789 27.844 0 8.8789-3.875 15.738-11.277 18.93-20.426h144.3c3.1914 9.1484 10.051 16.551 18.93 20.426 8.875 3.8789 18.969 3.8789 27.844 0 8.8789-3.875 15.738-11.277 18.93-20.426h2.1484c6.1875-0.007812 12.117-2.4688 16.492-6.8398 4.3711-4.375 6.832-10.305 6.8398-16.492v-48.672c0.023438-9.2852-3.668-18.195-10.254-24.746l-12.5-12.5h0.003906c-19.648-19.75-46.379-30.824-74.238-30.75h-86.02c-27.859-0.074219-54.594 11-74.238 30.75l-18 17.988-32.07 16.043-0.003906 0.003907c-5.8242 2.8906-10.727 7.3555-14.145 12.887-3.4219 5.5352-5.2227 11.914-5.1992 18.418v20.578c0.007812 6.1875 2.4688 12.117 6.8398 16.492 4.375 4.3711 10.305 6.832 16.492 6.8398zm35 0c-4.7188 0-8.9727-2.8398-10.777-7.1992-1.8086-4.3594-0.80859-9.3789 2.5273-12.715 3.3359-3.3359 8.3555-4.3359 12.715-2.5312 4.3594 1.8086 7.2031 6.0625 7.2031 10.781-0.003907 6.4414-5.2266 11.66-11.668 11.664zm210 0c-4.7188 0-8.9727-2.8398-10.777-7.1992-1.8086-4.3594-0.80859-9.3789 2.5273-12.715 3.3359-3.3359 8.3555-4.3359 12.715-2.5312 4.3594 1.8086 7.2031 6.0625 7.2031 10.781-0.003907 6.4414-5.2266 11.66-11.668 11.664zm-16.121-93.332-11.109-22.219c17.195 2.3125 33.188 10.105 45.609 22.219zm-37.758-23.332 11.668 23.332h-139.5c15.199-14.98 35.691-23.367 57.035-23.332zm-191.12 72.754c-0.019531-4.4219 2.4844-8.4727 6.4492-10.434l31.309-15.656h242.24v46.668h-2.1484c-3.1914-9.1484-10.051-16.551-18.93-20.426-8.875-3.875-18.969-3.875-27.844 0-8.8789 3.875-15.738 11.277-18.93 20.426h-144.3c-3.1914-9.1484-10.051-16.551-18.93-20.426-8.875-3.875-18.969-3.875-27.844 0-8.8789 3.875-15.738 11.277-18.93 20.426h-2.1484z"/>
</svg>
